<svg width="375" height="858" viewBox="0 0 375 858" fill="none" xmlns="http://www.w3.org/2000/svg">
<g clip-path="url(#clip0_4001_1010)">
<rect width="375" height="858" fill="white"/>
<rect width="375" height="70" fill="#1C5173"/>
<g clip-path="url(#clip1_4001_1010)">
<path d="M39.7306 46.7033C46.2091 46.7033 51.4318 41.4806 51.4318 35.002C51.4318 28.5235 46.2091 23.2968 39.7306 23.2968C33.252 23.2968 28.0293 28.5195 28.0293 35.002C28.0293 41.4845 33.252 46.7033 39.7306 46.7033ZM39.7306 31.3222C41.7598 31.3222 43.4064 32.9687 43.4064 35.002C43.4064 37.0353 41.7638 38.6739 39.7306 38.6739C37.6973 38.6739 36.0547 37.0313 36.0547 35.002C36.0547 32.9727 37.6973 31.3222 39.7306 31.3222Z" fill="white"/>
<path d="M20 47.086C20 49.3106 21.8379 51.1445 24.0586 51.1445C25.7051 51.1445 27.0606 50.1797 27.7384 48.7285C30.9318 51.5313 35.1857 53.2775 39.8264 53.2775C49.8851 53.2775 58.1058 45.0567 58.1058 34.998C58.0102 24.9393 49.7894 16.7185 39.7307 16.7185C35.09 16.7185 30.9318 18.4607 27.6387 21.2674C27.0566 19.9119 25.6094 18.9471 24.0586 18.9471C21.8379 18.9431 20 20.7811 20 22.906C20 25.031 21.4512 26.5819 23.3888 26.8729C22.129 29.2929 21.4512 32.0956 21.4512 35.002C21.4512 37.9084 22.129 40.7071 23.3888 43.1231C21.4512 43.4141 20 45.0567 20 47.09V47.086ZM39.7307 20.3943C47.7561 20.3943 54.3343 26.9726 54.3343 35.002C54.3343 43.0314 47.7561 49.6017 39.7307 49.6017C31.7053 49.6017 25.127 43.0274 25.127 35.002C25.127 26.9766 31.6056 20.3943 39.7307 20.3943ZM22.2246 22.906C22.2246 21.9412 23.0977 21.0681 24.0586 21.0681C25.0194 21.0681 25.9005 21.8415 25.9005 22.906V23.1014C25.5137 23.5838 25.127 24.0662 24.7363 24.5486C24.545 24.6443 24.2539 24.6443 24.0586 24.6443C22.9981 24.74 22.2246 23.9665 22.2246 22.902V22.906ZM24.0586 45.2481C24.2539 45.2481 24.545 45.3477 24.7363 45.3477C25.127 45.8301 25.5098 46.4122 25.9005 46.7949V46.9903C25.9005 48.0548 25.0274 48.9239 24.0586 48.9239C22.9981 48.9239 22.2246 48.0548 22.2246 47.086C22.2246 46.0215 23.0977 45.2481 24.0586 45.2481Z" fill="white"/>
<path d="M143.448 35.6319H141.594V46.2846H143.448V35.6319Z" fill="white"/>
<path d="M154.024 35.6319H152.095V46.2846H154.024V35.6319Z" fill="white"/>
<path d="M162.759 39.0207H161.133V40.5755H162.759V46.2886H164.689V35.6319H162.759V39.0207Z" fill="white"/>
<path d="M139.106 39.212H137.487V40.7669H139.106V45.9218H140.928V35.7076H139.106V39.212Z" fill="white"/>
<path d="M147.872 36.1701C146.027 36.1701 144.711 37.402 144.711 39.9735C144.711 42.545 146.027 43.8288 147.872 43.8288C149.718 43.8288 150.97 42.6407 150.97 39.9735C150.97 37.3063 149.686 36.1701 147.872 36.1701ZM147.861 42.2141C147.087 42.2141 146.585 41.5284 146.585 39.9974C146.585 38.4665 147.087 37.7768 147.861 37.7768C148.578 37.7768 149.112 38.4107 149.112 39.9974C149.112 41.5842 148.578 42.2141 147.861 42.2141Z" fill="white"/>
<path d="M157.732 40.6831H160.519V39.1721H157.732V37.7967H161.013V36.2857H155.803V43.9364C158.298 43.9364 159.909 43.9164 161.974 43.6493V42.1822C160.36 42.3417 159.211 42.4054 157.732 42.4054V40.6831Z" fill="white"/>
<path d="M119.375 43.2666H109.033V44.8414H119.375V43.2666Z" fill="white"/>
<path d="M79.0765 41.8593C76.6326 41.8593 75.2412 42.7165 75.2412 44.1637C75.2412 45.6109 76.5808 46.4441 79.0765 46.4441C81.5723 46.4441 82.9038 45.587 82.9038 44.1637C82.9038 42.7404 81.4806 41.8593 79.0765 41.8593ZM79.0765 44.981C78.0479 44.981 77.2147 44.7338 77.2147 44.1677C77.2147 43.5657 78.0718 43.3304 79.0765 43.3304C80.0812 43.3304 80.9304 43.5537 80.9304 44.1677C80.9304 44.7338 80.0652 44.981 79.0765 44.981Z" fill="white"/>
<path d="M110.094 39.3755V40.8745C112.075 40.8745 114.156 40.8745 115.891 40.743C115.815 41.4167 115.731 42.0825 115.631 42.6606H117.637C117.96 40.9144 118.143 38.7496 118.207 36.2817H110.213V37.8047H116.118C116.106 38.2432 116.078 38.7256 116.046 39.22C114.244 39.3277 112.167 39.3715 110.098 39.3715L110.094 39.3755Z" fill="white"/>
<path d="M90.6742 40.6075V41.4008H91.8822V42.0347H93.8118V35.6359H91.8822V37.5576H90.7021V36.5808H88.7486V35.4764H86.8429V36.5808H84.6143V37.9841H90.6702V39.0965H91.8782V39.8579H90.6981C90.5147 38.925 89.4303 38.2712 87.7718 38.2712C85.91 38.2712 84.8455 39.0566 84.8455 40.149C84.8455 41.2414 85.9498 42.0108 87.7798 42.0108C89.3346 42.0108 90.3951 41.5085 90.6662 40.6075H90.6742ZM86.7392 40.149C86.7392 39.7623 87.0701 39.5071 87.7758 39.5071C88.4815 39.5071 88.8602 39.7623 88.8602 40.149C88.8602 40.5357 88.5173 40.8148 87.7758 40.8148C87.0342 40.8148 86.7392 40.5676 86.7392 40.149Z" fill="white"/>
<path d="M74.0527 36.0306V41.337H79.6582V36.0306H77.888V37.4339H75.8428V36.0306H74.0527ZM77.888 38.8612V39.9097H75.8428V38.8612H77.888Z" fill="white"/>
<path d="M90.0003 42.2261C87.6441 42.2261 86.165 42.9876 86.165 44.3152C86.165 45.6428 87.5883 46.4401 90.0003 46.4401C92.4124 46.4401 93.8795 45.6547 93.8795 44.3152C93.8795 42.9756 92.4124 42.2261 90.0003 42.2261ZM90.0003 45.0766C89.0555 45.0766 88.1146 44.8295 88.1146 44.3271C88.1146 43.8248 89.0674 43.5736 90.0003 43.5736C90.9333 43.5736 91.93 43.8447 91.93 44.3271C91.93 44.8095 90.9532 45.0766 90.0003 45.0766Z" fill="white"/>
<path d="M107.714 35.6319H105.784V41.9231H107.714V35.6319Z" fill="white"/>
<path d="M82.7324 39.3197H84.3071V37.7329H82.7324V35.6319H80.8027V41.7118H82.7324V39.3197Z" fill="white"/>
<path d="M103.93 42.0626C101.295 42.0626 100.059 42.9078 100.059 44.2394C100.059 45.571 101.295 46.4441 103.93 46.4441C106.565 46.4441 107.829 45.567 107.829 44.2394C107.829 42.9118 106.589 42.0626 103.93 42.0626ZM103.93 44.981C102.75 44.981 102.032 44.7418 102.032 44.2514C102.032 43.761 102.75 43.5258 103.93 43.5258C105.11 43.5258 105.859 43.761 105.859 44.2514C105.859 44.7418 105.154 44.981 103.93 44.981Z" fill="white"/>
<path d="M130.092 43.3623H119.75V44.9371H130.092V43.3623Z" fill="white"/>
<path d="M128.872 37.8087V36.2857H120.994V41.7755H129.012V40.2526H123.031V37.8087H128.872Z" fill="white"/>
<path d="M70.8479 39.1283H69.9987V35.7076H68.1768V45.9218H69.9987V40.8227H70.8479V46.2886H72.7018V35.6319H70.8479V39.1283Z" fill="white"/>
<path d="M104.137 39.4832V35.9907H99.0898V37.406H102.263V38.1117H99.0898V41.636C100.888 41.636 103.172 41.6041 105.09 41.3689V40.0174C103.3 40.1888 102.291 40.2207 100.964 40.2207V39.4832H104.137Z" fill="white"/>
<path d="M138.527 42.246C137.347 42.3736 136.833 42.3975 135.968 42.3975V37.9681H138.133V36.4452H134.078V43.9802C135.804 43.9802 137.08 43.9922 138.527 43.741V42.242V42.246Z" fill="white"/>
<path d="M62.6904 43.1789L64.0619 44.2593C66.5576 42.4932 67.6939 40.3483 67.7058 36.4452H63.3522V37.9881H65.8081C65.6686 40.2845 64.5881 41.8154 62.6904 43.1749V43.1789Z" fill="white"/>
<path d="M106.075 30.6045C106.661 31.1029 107.462 31.354 108.483 31.354C109.503 31.354 110.305 31.1069 110.887 30.6045C111.473 30.1062 111.784 29.3726 111.82 28.4078C111.832 27.9892 111.84 27.6742 111.84 27.4749C111.84 27.2755 111.832 26.9486 111.82 26.534C111.788 25.5772 111.477 24.8436 110.875 24.3293C110.273 23.811 109.475 23.5558 108.479 23.5558C107.482 23.5558 106.685 23.811 106.087 24.3293C105.489 24.8436 105.178 25.5811 105.142 26.534C105.134 26.7413 105.13 27.0602 105.13 27.4749C105.13 27.8895 105.134 28.1965 105.142 28.4078C105.178 29.3726 105.489 30.1062 106.071 30.6045H106.075ZM107.159 26.5619C107.179 26.0715 107.311 25.7047 107.542 25.4655C107.773 25.2263 108.088 25.1067 108.479 25.1067C108.87 25.1067 109.184 25.2263 109.42 25.4655C109.659 25.7047 109.782 26.0675 109.798 26.5619C109.814 26.9685 109.818 27.2636 109.818 27.451C109.818 27.6224 109.814 27.9214 109.798 28.34C109.782 28.8304 109.659 29.1972 109.424 29.4364C109.188 29.6756 108.873 29.7952 108.475 29.7952C108.076 29.7952 107.761 29.6756 107.53 29.4364C107.299 29.1972 107.171 28.8344 107.151 28.34C107.143 28.1327 107.139 27.8337 107.139 27.451C107.139 27.0682 107.139 26.7652 107.151 26.5619H107.159Z" fill="white"/>
<path d="M157.438 31.0152C157.438 31.071 157.457 31.1228 157.509 31.1706C157.553 31.2185 157.609 31.2424 157.665 31.2424H159C159.18 31.2424 159.299 31.1667 159.359 31.0152L159.77 29.9108H162.66L163.083 31.0152C163.139 31.1667 163.254 31.2424 163.43 31.2424H164.765C164.833 31.2424 164.889 31.2185 164.933 31.1706C164.977 31.1228 165.004 31.071 165.004 31.0152L164.985 30.9155L162.445 23.9585C162.425 23.8708 162.377 23.799 162.305 23.7432C162.234 23.6874 162.138 23.6555 162.022 23.6555H160.42C160.304 23.6555 160.212 23.6874 160.137 23.7432C160.065 23.799 160.017 23.8748 159.997 23.9585L157.449 30.9155C157.441 30.9354 157.438 30.9713 157.438 31.0152ZM161.221 25.4855L162.23 28.344H160.212L161.221 25.4855Z" fill="white"/>
<path d="M88.6568 31.2424H93.8078C93.8875 31.2424 93.9513 31.2145 94.0031 31.1587C94.051 31.1069 94.0789 31.0391 94.0789 30.9713V29.9507C94.0789 29.871 94.051 29.8072 94.0031 29.7554C93.9513 29.7035 93.8875 29.6796 93.8078 29.6796H90.2635V28.1726H93.4809C93.5606 28.1726 93.6244 28.1447 93.6762 28.0929C93.7281 28.0371 93.752 27.9773 93.752 27.9015V26.9566C93.752 26.8769 93.7281 26.8131 93.6762 26.7573C93.6244 26.7015 93.5606 26.6736 93.4809 26.6736H90.2635V25.2104H93.7201C93.7998 25.2104 93.8636 25.1825 93.9154 25.1267C93.9633 25.0749 93.9912 25.0111 93.9912 24.9393V23.9187C93.9912 23.8389 93.9633 23.7752 93.9154 23.7233C93.8636 23.6715 93.7998 23.6476 93.7201 23.6476H88.6568C88.5851 23.6476 88.5213 23.6755 88.4695 23.7233C88.4137 23.7752 88.3857 23.8389 88.3857 23.9187V30.9634C88.3857 31.0351 88.4137 31.0989 88.4695 31.1507C88.5213 31.2026 88.5851 31.2345 88.6568 31.2345V31.2424Z" fill="white"/>
<path d="M113.367 31.2424H114.83C114.91 31.2424 114.977 31.2145 115.033 31.1667C115.085 31.1188 115.113 31.0511 115.113 30.9713V28.5952H116.405C117.334 28.5952 118.067 28.3919 118.594 27.9812C119.12 27.5746 119.383 26.9646 119.383 26.1553C119.383 25.3459 119.12 24.716 118.586 24.2934C118.055 23.8668 117.326 23.6516 116.405 23.6516H113.367C113.295 23.6516 113.231 23.6795 113.179 23.7273C113.124 23.7791 113.096 23.8429 113.096 23.9227V30.9673C113.096 31.0391 113.124 31.1029 113.179 31.1547C113.231 31.2065 113.295 31.2384 113.367 31.2384V31.2424ZM115.081 25.1625H116.349C116.692 25.1625 116.943 25.2503 117.114 25.4257C117.282 25.6011 117.366 25.8403 117.366 26.1353C117.366 26.4543 117.278 26.6935 117.098 26.8569C116.915 27.0164 116.668 27.1001 116.349 27.1001H115.081V25.1625Z" fill="white"/>
<path d="M95.5817 31.2424H98.4521C99.5206 31.2424 100.338 30.9992 100.896 30.5089C101.458 30.0225 101.753 29.2729 101.793 28.2723C101.797 28.0689 101.801 27.7938 101.801 27.447C101.801 27.1001 101.801 26.825 101.793 26.6098C101.761 25.6489 101.454 24.9154 100.872 24.413C100.286 23.9067 99.4648 23.6516 98.4003 23.6516H95.5817C95.5099 23.6516 95.4461 23.6795 95.3943 23.7273C95.3385 23.7791 95.3105 23.8429 95.3105 23.9227V30.9673C95.3105 31.0391 95.3385 31.1029 95.3943 31.1547C95.4461 31.2065 95.5099 31.2384 95.5817 31.2384V31.2424ZM97.2641 25.2144H98.3485C98.8229 25.2144 99.1857 25.33 99.4249 25.5612C99.6681 25.7925 99.7917 26.1513 99.8077 26.6337C99.8236 26.837 99.8316 27.1041 99.8316 27.439C99.8316 27.7739 99.8236 28.041 99.8077 28.2483C99.7917 28.7507 99.6761 29.1135 99.4488 29.3367C99.2256 29.564 98.8747 29.6796 98.4003 29.6796H97.2641V25.2144Z" fill="white"/>
<path d="M73.6785 31.2424H74.9782C75.0579 31.2424 75.1217 31.2145 75.1735 31.1587C75.2254 31.1069 75.2493 31.0391 75.2493 30.9713V27.0244L77.8925 31.0351C77.9723 31.1746 78.0919 31.2424 78.2514 31.2424H79.4075C79.4873 31.2424 79.551 31.2145 79.6029 31.1587C79.6547 31.1069 79.6786 31.0391 79.6786 30.9593V23.9266C79.6786 23.8469 79.6547 23.7831 79.6029 23.7313C79.551 23.6794 79.4873 23.6555 79.4075 23.6555H78.1078C78.0361 23.6555 77.9723 23.6834 77.9165 23.7313C77.8646 23.7831 77.8327 23.8469 77.8327 23.9266V28.0251L75.1895 23.8628C75.1257 23.7273 75.0021 23.6555 74.8227 23.6555H73.6745C73.6027 23.6555 73.5389 23.6834 73.4831 23.7313C73.4313 23.7831 73.3994 23.8469 73.3994 23.9266V30.9713C73.3994 31.0431 73.4273 31.1069 73.4831 31.1587C73.5389 31.2105 73.6027 31.2424 73.6745 31.2424H73.6785Z" fill="white"/>
<path d="M81.4724 31.2424H82.8398C82.9196 31.2424 82.9834 31.2145 83.0312 31.1667C83.083 31.1189 83.1069 31.0511 83.1069 30.9713V28.348L85.2558 31.0272C85.3714 31.1707 85.515 31.2464 85.6864 31.2464H87.3011C87.3648 31.2464 87.4207 31.2225 87.4605 31.1747C87.5044 31.1268 87.5283 31.075 87.5283 31.0192C87.5283 30.9634 87.5124 30.9155 87.4845 30.8876L84.6857 27.2915L87.2851 24.0184C87.305 23.9825 87.317 23.9386 87.317 23.8868C87.317 23.831 87.2971 23.7792 87.2532 23.7313C87.2094 23.6835 87.1535 23.6595 87.0898 23.6595H85.5309C85.3356 23.6595 85.196 23.7313 85.1083 23.8669L83.103 26.3387V23.9306C83.103 23.8509 83.079 23.7871 83.0272 23.7353C82.9794 23.6835 82.9116 23.6595 82.8358 23.6595H81.4684C81.3966 23.6595 81.3328 23.6875 81.277 23.7353C81.2252 23.7871 81.1973 23.8509 81.1973 23.9306V30.9753C81.1973 31.0471 81.2252 31.1109 81.277 31.1627C81.3328 31.2145 81.3966 31.2464 81.4684 31.2464L81.4724 31.2424Z" fill="white"/>
<path d="M144.616 31.2424H145.951C146.131 31.2424 146.25 31.1667 146.31 31.0152L146.721 29.9108H149.615L150.038 31.0152C150.094 31.1667 150.209 31.2424 150.385 31.2424H151.72C151.784 31.2424 151.84 31.2185 151.888 31.1706C151.936 31.1228 151.959 31.071 151.959 31.0152L151.94 30.9155L149.4 23.9585C149.38 23.8708 149.332 23.799 149.26 23.7432C149.189 23.6874 149.093 23.6555 148.977 23.6555H147.375C147.259 23.6555 147.163 23.6874 147.092 23.7432C147.02 23.799 146.972 23.8748 146.952 23.9585L144.404 30.9155C144.396 30.9354 144.396 30.9713 144.396 31.0152C144.396 31.071 144.416 31.1228 144.464 31.1706C144.512 31.2185 144.564 31.2424 144.62 31.2424H144.616ZM148.172 25.4855L149.181 28.344H147.163L148.172 25.4855Z" fill="white"/>
<path d="M63.6998 31.2424H68.6833C68.7631 31.2424 68.8268 31.2145 68.8787 31.1587C68.9305 31.1069 68.9544 31.0391 68.9544 30.9713V29.8869C68.9544 29.8072 68.9265 29.7434 68.8787 29.6875C68.8268 29.6357 68.7631 29.6038 68.6833 29.6038H65.4022V23.9266C65.4022 23.8469 65.3743 23.7831 65.3264 23.7313C65.2746 23.6794 65.2108 23.6555 65.1311 23.6555H63.6998C63.6281 23.6555 63.5643 23.6834 63.5084 23.7313C63.4566 23.7831 63.4287 23.8469 63.4287 23.9266V30.9713C63.4287 31.0431 63.4566 31.1069 63.5084 31.1587C63.5643 31.2105 63.6281 31.2424 63.6998 31.2424Z" fill="white"/>
<path d="M70.1695 31.2424H71.6207C71.7005 31.2424 71.7682 31.2145 71.8241 31.1667C71.8759 31.1188 71.9038 31.051 71.9038 30.9713V23.9266C71.9038 23.8469 71.8759 23.7831 71.8241 23.7313C71.7682 23.6794 71.7005 23.6555 71.6207 23.6555H70.1695C70.0978 23.6555 70.034 23.6834 69.9822 23.7313C69.9263 23.7831 69.8984 23.8469 69.8984 23.9266V30.9713C69.8984 31.0431 69.9263 31.1069 69.9822 31.1587C70.034 31.2105 70.1018 31.2424 70.1695 31.2424Z" fill="white"/>
<path d="M151.78 25.3579H153.71V30.9713C153.71 31.0431 153.737 31.1069 153.789 31.1587C153.845 31.2105 153.909 31.2424 153.981 31.2424H155.412C155.492 31.2424 155.555 31.2145 155.607 31.1587C155.659 31.1069 155.683 31.0391 155.683 30.9713V25.3579H157.613C157.692 25.3579 157.756 25.33 157.808 25.2821C157.86 25.2303 157.884 25.1665 157.884 25.0868V23.9266C157.884 23.8469 157.856 23.7831 157.808 23.7313C157.756 23.6794 157.692 23.6555 157.613 23.6555H151.78C151.708 23.6555 151.644 23.6834 151.589 23.7313C151.533 23.7831 151.509 23.8469 151.509 23.9266V25.0868C151.509 25.1585 151.537 25.2223 151.589 25.2742C151.644 25.33 151.704 25.3579 151.78 25.3579Z" fill="white"/>
<path d="M120.695 31.2424H125.842C125.922 31.2424 125.985 31.2145 126.037 31.1587C126.085 31.1069 126.113 31.0391 126.113 30.9713V29.9507C126.113 29.871 126.085 29.8072 126.037 29.7554C125.985 29.7035 125.922 29.6796 125.842 29.6796H122.298V28.1726H125.519C125.599 28.1726 125.662 28.1447 125.714 28.0929C125.766 28.0371 125.79 27.9773 125.79 27.9015V26.9566C125.79 26.8769 125.762 26.8131 125.714 26.7573C125.662 26.7015 125.599 26.6736 125.519 26.6736H122.298V25.2104H125.758C125.838 25.2104 125.902 25.1825 125.95 25.1267C126.001 25.0749 126.029 25.0111 126.029 24.9393V23.9187C126.029 23.8389 126.001 23.7752 125.95 23.7233C125.898 23.6715 125.834 23.6476 125.758 23.6476H120.695C120.619 23.6476 120.559 23.6755 120.504 23.7233C120.448 23.7752 120.424 23.8389 120.424 23.9187V30.9634C120.424 31.0351 120.452 31.0989 120.504 31.1507C120.559 31.2026 120.619 31.2345 120.695 31.2345V31.2424Z" fill="white"/>
<path d="M137.722 31.2424H140.597C141.665 31.2424 142.483 30.9992 143.041 30.5089C143.599 30.0225 143.898 29.2729 143.934 28.2723C143.942 28.0689 143.946 27.7938 143.946 27.447C143.946 27.1001 143.942 26.825 143.934 26.6098C143.906 25.6489 143.599 24.9154 143.013 24.413C142.431 23.9067 141.605 23.6516 140.541 23.6516H137.722C137.651 23.6516 137.587 23.6795 137.535 23.7273C137.483 23.7791 137.451 23.8429 137.451 23.9227V30.9673C137.451 31.0391 137.479 31.1029 137.535 31.1547C137.591 31.2065 137.654 31.2384 137.722 31.2384V31.2424ZM139.405 25.2144H140.489C140.968 25.2144 141.326 25.33 141.566 25.5612C141.809 25.7925 141.936 26.1513 141.952 26.6337C141.968 26.837 141.972 27.1041 141.972 27.439C141.972 27.7739 141.968 28.041 141.952 28.2483C141.936 28.7507 141.817 29.1135 141.593 29.3367C141.37 29.564 141.019 29.6796 140.541 29.6796H139.405V25.2144Z" fill="white"/>
<path d="M127.62 31.2424H128.919C128.999 31.2424 129.063 31.2145 129.115 31.1587C129.163 31.1069 129.19 31.0391 129.19 30.9713V27.0244L131.838 31.0351C131.917 31.1746 132.033 31.2424 132.197 31.2424H133.357C133.436 31.2424 133.5 31.2145 133.552 31.1587C133.6 31.1069 133.628 31.0391 133.628 30.9593V23.9266C133.628 23.8469 133.6 23.7831 133.552 23.7313C133.5 23.6794 133.436 23.6555 133.357 23.6555H132.053C131.981 23.6555 131.921 23.6834 131.866 23.7313C131.81 23.7831 131.786 23.8469 131.786 23.9266V28.0251L129.143 23.8628C129.075 23.7273 128.955 23.6555 128.776 23.6555H127.628C127.552 23.6555 127.492 23.6834 127.436 23.7313C127.38 23.7831 127.353 23.8469 127.353 23.9266V30.9713C127.353 31.0431 127.38 31.1069 127.436 31.1587C127.492 31.2105 127.552 31.2424 127.628 31.2424H127.62Z" fill="white"/>
</g>
<path d="M321 29H343" stroke="white" stroke-width="2" stroke-linecap="round"/>
<path d="M321 35H343" stroke="white" stroke-width="2" stroke-linecap="round"/>
<path d="M321 41H343" stroke="white" stroke-width="2" stroke-linecap="round"/>
<path d="M72.6901 118.27C72.6843 120.824 70.78 122.682 67.8151 123.531L67.4987 122.945C70.0358 122.213 71.7175 120.771 71.8991 118.891H68.0144V118.27H72.6901ZM69.2097 127.762V123.965H75.8776V127.762H69.2097ZM69.9362 127.141H75.1511V124.562H69.9362V127.141ZM72.7019 120.941V120.32H75.1394V117.578H75.8776V123.52H75.1394V120.941H72.7019ZM80.7409 119.664C80.7409 120.854 81.6022 122.061 82.9206 122.57L82.5222 123.156C81.5026 122.734 80.7526 121.932 80.3894 120.982C80.0144 122.008 79.2292 122.934 78.198 123.402L77.7878 122.828C79.1237 122.23 80.0319 120.848 80.0378 119.664V118.211H80.7409V119.664ZM79.5573 125.043V124.434H86.4714V127.914H85.7565V125.043H79.5573ZM83.5183 123.766V117.777H84.2214V120.332H85.7683V117.578H86.4714V123.824H85.7683V120.965H84.2214V123.766H83.5183ZM90.8542 118.398C92.2663 118.404 93.28 119.641 93.3972 121.598H95.8933V117.578H96.6198V127.926H95.8933V122.207H93.403C93.3269 124.252 92.3015 125.547 90.8542 125.547C89.3425 125.547 88.2878 124.152 88.2995 121.973C88.2878 119.799 89.3425 118.404 90.8542 118.398ZM89.0026 121.973C88.9968 123.701 89.7585 124.891 90.8542 124.891C91.944 124.891 92.7116 123.701 92.7058 121.973C92.7116 120.244 91.944 119.061 90.8542 119.055C89.7585 119.061 88.9968 120.244 89.0026 121.973ZM107.917 122.43V123.027H98.4597V122.43H107.917ZM99.6198 124.539V123.965H106.721V126.086H100.37V127.199H107.073V127.762H99.6433V125.535H105.983V124.539H99.6198ZM99.6667 118.48V117.93H106.686V119.969H100.428V120.988H106.862V121.551H99.7019V119.441H105.948V118.48H99.6667ZM120.233 117.578V123.109H119.495V117.578H120.233ZM112.007 120.461C112.001 119.049 113.12 118.094 114.678 118.094C116.237 118.094 117.344 119.049 117.35 120.461C117.344 121.855 116.237 122.811 114.678 122.805C113.12 122.811 112.001 121.855 112.007 120.461ZM112.721 120.461C112.721 121.451 113.542 122.184 114.678 122.184C115.809 122.184 116.63 121.451 116.635 120.461C116.63 119.453 115.809 118.721 114.678 118.727C113.542 118.721 112.721 119.453 112.721 120.461ZM113.612 127.762V123.66H114.339V125.02H119.507V123.66H120.233V127.762H113.612ZM114.339 127.152H119.507V125.629H114.339V127.152ZM126.995 118.211V121.012H123.292V122.781C125.378 122.781 126.403 122.746 127.675 122.512L127.745 123.145C126.444 123.355 125.401 123.391 123.28 123.391H122.565V120.426H126.257V118.832H122.542V118.211H126.995ZM123.714 125.137V124.516H130.628V127.938H129.889V125.137H123.714ZM127.71 121.891V121.27H129.889V119.77H127.71V119.16H129.889V117.578H130.628V123.93H129.889V121.891H127.71ZM137.706 119.43V120.039H132.456V119.43H134.706V117.895H135.456V119.43H137.706ZM132.866 123.133C132.86 121.773 133.792 120.818 135.081 120.812C136.364 120.818 137.296 121.773 137.296 123.133C137.296 124.504 136.364 125.465 135.081 125.465C133.792 125.465 132.86 124.504 132.866 123.133ZM133.534 123.133C133.528 124.094 134.178 124.814 135.081 124.809C135.977 124.814 136.633 124.094 136.639 123.133C136.633 122.184 135.977 121.457 135.081 121.445C134.178 121.457 133.528 122.184 133.534 123.133ZM138.292 127.387V117.836H138.983V121.984H140.542V117.578H141.245V127.914H140.542V122.605H138.983V127.387H138.292ZM147.96 119.031C147.954 120.52 150.022 121.703 151.675 121.961L151.393 122.547C149.87 122.271 148.176 121.387 147.555 120.086C146.934 121.387 145.241 122.271 143.741 122.547L143.448 121.961C145.083 121.703 147.145 120.52 147.151 119.031V118.867H143.753V118.258H151.346V118.867H147.96V119.031ZM142.85 124.152V123.52H152.272V124.152H147.901V127.902H147.186V124.152H142.85ZM156.21 120.625C156.21 122.254 157.13 124.047 158.483 124.832L158.038 125.406C157.018 124.791 156.239 123.625 155.87 122.318C155.495 123.742 154.669 124.979 153.62 125.617L153.128 125.066C154.528 124.264 155.501 122.424 155.507 120.648V118.574H156.21V120.625ZM157.323 121.996V121.352H159.21V117.812H159.913V127.375H159.21V121.996H157.323ZM161.331 127.914V117.578H162.046V127.914H161.331ZM173.061 125.91V126.543H163.592V125.91H166.007V123.033C165.104 122.588 164.553 121.844 164.553 120.906C164.553 119.318 166.106 118.281 168.292 118.27C170.495 118.281 172.042 119.318 172.042 120.906C172.042 121.832 171.508 122.564 170.624 123.016V125.91H173.061ZM165.257 120.906C165.257 122.09 166.528 122.916 168.292 122.91C170.05 122.916 171.339 122.09 171.339 120.906C171.339 119.699 170.05 118.885 168.292 118.891C166.528 118.885 165.257 119.699 165.257 120.906ZM166.733 125.91H169.885V123.303C169.411 123.438 168.872 123.508 168.292 123.508C167.723 123.508 167.202 123.438 166.733 123.309V125.91Z" fill="#999999"/>
<path d="M315.5 101.25C317.019 101.25 318.25 102.481 318.25 104V142C318.25 143.519 317.019 144.75 315.5 144.75H59.5C57.9812 144.75 56.75 143.519 56.75 142V104C56.75 102.481 57.9812 101.25 59.5 101.25H315.5Z" stroke="#1C5173" stroke-width="1.5"/>
<path d="M274.27 102H315.5C316.605 102 317.5 102.895 317.5 104V142C317.5 143.105 316.605 144 315.5 144H274.27V102Z" fill="#1C5173"/>
<path d="M307.385 135L301.594 129.209M301.594 129.209C302.585 128.219 303.37 127.043 303.906 125.749C304.442 124.455 304.718 123.068 304.718 121.667C304.718 120.266 304.443 118.879 303.906 117.585C303.37 116.291 302.585 115.115 301.594 114.124C300.604 113.134 299.428 112.348 298.134 111.812C296.839 111.276 295.452 111 294.052 111C292.651 111 291.264 111.276 289.97 111.812C288.675 112.348 287.5 113.134 286.509 114.124C284.509 116.125 283.385 118.838 283.385 121.667C283.385 124.496 284.509 127.209 286.509 129.209C288.509 131.21 291.223 132.334 294.052 132.334C296.881 132.334 299.594 131.21 301.594 129.209Z" stroke="white" stroke-width="2.5" stroke-linecap="round" stroke-linejoin="round"/>
<rect x="181" y="158" width="64" height="36" rx="2" stroke="#3B3B3B" stroke-width="0.8"/>
<path d="M198.911 175.307V176.209H196.942V182.607H195.876V170.453H196.942V175.307H198.911ZM188.042 179.518V171.656H189.108V178.615C190.886 178.615 192.697 178.479 194.7 178.055L194.837 178.971C192.738 179.395 190.852 179.518 189.013 179.518H188.042ZM203.614 171.342C205.521 171.349 206.875 172.511 206.882 174.199C206.875 175.895 205.521 177.05 203.614 177.057C201.693 177.05 200.326 175.895 200.333 174.199C200.326 172.511 201.693 171.349 203.614 171.342ZM199.704 179.039C201.946 179.046 205.043 179.025 207.729 178.629L207.812 179.422C205.029 179.941 202.042 179.955 199.854 179.955L199.704 179.039ZM201.386 174.199C201.379 175.334 202.315 176.113 203.614 176.113C204.899 176.113 205.836 175.334 205.829 174.199C205.836 173.071 204.899 172.285 203.614 172.285C202.315 172.285 201.379 173.071 201.386 174.199ZM208.536 182.635V170.453H209.603V182.635H208.536ZM224.915 170.973V175.074H221.319V176.633H226.323V177.508H215.249V176.633H220.253V175.074H216.685V170.973H224.915ZM216.479 179.641V178.779H224.956V182.607H223.876V179.641H216.479ZM217.737 174.213H223.849V171.834H217.737V174.213ZM238.464 177.152V178.041H227.335V177.152H232.366V175.867H228.784V172.9H235.948V171.643H228.743V170.768H237.028V173.707H229.851V175.006H237.288V175.867H233.419V177.152H238.464ZM228.579 179.846V178.971H237.097V182.498H236.017V179.846H228.579Z" fill="#333333"/>
<rect x="255" y="158" width="64" height="36" rx="2" fill="#1C5173"/>
<path d="M265.597 172.422C265.597 174.076 266.854 175.594 268.618 176.195L268.03 177.043C266.69 176.551 265.631 175.546 265.098 174.274C264.578 175.717 263.491 176.831 262.069 177.385L261.495 176.523C263.313 175.847 264.537 174.22 264.544 172.34V171.082H265.597V172.422ZM263.108 180.365C263.115 178.978 264.64 178.164 267.142 178.164C269.637 178.164 271.147 178.978 271.147 180.365C271.147 181.78 269.637 182.58 267.142 182.58C264.64 182.58 263.115 181.78 263.108 180.365ZM264.188 180.365C264.175 181.227 265.31 181.726 267.142 181.732C268.98 181.726 270.102 181.227 270.108 180.365C270.102 179.538 268.98 179.025 267.142 179.025C265.31 179.025 264.175 179.538 264.188 180.365ZM269.972 177.85V170.453H271.038V173.625H272.87V174.527H271.038V177.85H269.972ZM277.245 173.912C277.245 175.847 278.188 177.932 279.802 178.889L279.187 179.723C278.011 179.012 277.17 177.713 276.746 176.229C276.302 177.85 275.399 179.244 274.183 179.982L273.499 179.176C275.181 178.191 276.206 176.038 276.206 173.953V171.602H277.245V173.912ZM278.462 175.73V174.814H280.526V170.713H281.538V181.992H280.526V175.73H278.462ZM283.015 182.607V170.453H284.054V182.607H283.015ZM295.524 171.246C295.518 174.295 293.337 176.482 289.837 177.48L289.386 176.633C292.291 175.812 294.15 174.199 294.383 172.135H290.015V171.246H295.524ZM291.437 182.443V177.918H299.325V182.443H291.437ZM292.476 181.568H298.259V178.779H292.476V181.568ZM295.552 174.5V173.598H298.245V170.467H299.325V177.398H298.245V174.5H295.552ZM304.972 172.832C304.979 174.22 305.901 175.614 307.46 176.223L306.886 177.057C305.73 176.585 304.896 175.689 304.466 174.616C304.015 175.792 303.14 176.831 301.95 177.357L301.362 176.523C302.962 175.812 303.939 174.22 303.946 172.832V171.205H304.972V172.832ZM303.481 179.367V178.479H311.671V182.607H310.618V179.367H303.481ZM308.021 177.74V170.686H309.032V173.639H310.646V170.467H311.671V177.809H310.646V174.541H309.032V177.74H308.021Z" fill="white"/>
<path d="M25.9688 235.967V244.881H24.8887V240.219H22.3867V239.33H24.8887V235.967H25.9688ZM15.9473 242.447C17.7383 241.818 19.0371 240.212 19.0371 238.469V237.84H16.2891V236.951H22.8379V237.84H20.1172V238.469C20.1172 240.041 21.334 241.565 23.1113 242.174L22.5508 243.035C21.1836 242.536 20.124 241.518 19.5977 240.26C19.0713 241.668 17.9502 242.782 16.5078 243.322L15.9473 242.447ZM18.1621 247.848V244.074H19.2422V246.945H26.3105V247.848H18.1621ZM31.5469 239.699C31.5537 241.654 32.5449 243.657 34.1992 244.539L33.584 245.346C32.374 244.683 31.499 243.425 31.0547 241.962C30.624 243.521 29.7559 244.888 28.5391 245.619L27.8965 244.799C29.5508 243.842 30.5283 241.709 30.5352 239.699V239.098H28.2246V238.209H30.5352V236.404H31.5605V238.209H33.8301V239.098H31.5469V239.699ZM32.9961 241.668V240.752H34.9102V236.254H35.9219V247.479H34.9102V241.668H32.9961ZM37.3574 248.107V235.953H38.3828V248.107H37.3574Z" fill="#3B3B3B"/>
<path d="M54.813 247.146C52.6963 247.146 51.1362 245.879 51.0776 244.129H52.938C52.9966 244.986 53.8096 245.601 54.813 245.608C55.9995 245.601 56.8564 244.744 56.8491 243.572C56.8564 242.356 55.9775 241.5 54.7544 241.492C53.9268 241.485 53.3262 241.778 52.9966 242.4H51.2241L51.8687 236.395H58.1382V237.991H53.436L53.1138 240.804H53.2163C53.6265 240.342 54.3955 240.005 55.2671 239.998C57.2373 240.005 58.7021 241.47 58.6948 243.514C58.7021 245.63 57.1055 247.146 54.813 247.146ZM62.0933 245.96L60.8628 250.062H59.4712L60.2329 245.96H62.0933ZM67.6011 247.146C65.0449 247.146 63.5215 245.169 63.5288 241.697C63.5215 238.24 65.0596 236.248 67.6011 236.248C70.1426 236.248 71.6733 238.24 71.6733 241.697C71.6733 245.176 70.1499 247.146 67.6011 247.146ZM65.4478 241.697C65.4478 244.246 66.2681 245.542 67.6011 245.55C68.9268 245.542 69.7544 244.246 69.7544 241.697C69.7471 239.17 68.9268 237.837 67.6011 237.83C66.2754 237.837 65.4551 239.17 65.4478 241.697ZM73.3726 247L77.9722 238.064V237.991H72.6401V236.395H79.9497V238.021L75.3501 247H73.3726ZM85.1353 247.146C82.7695 247.146 81.0996 245.887 81.1069 244.158C81.0996 242.811 82.103 241.712 83.3774 241.507V241.448C82.2642 241.214 81.5098 240.247 81.5024 239.09C81.5098 237.449 83.0405 236.248 85.1353 236.248C87.2153 236.248 88.7534 237.449 88.7534 239.09C88.7534 240.254 87.9771 241.214 86.8784 241.448V241.507C88.1455 241.712 89.1562 242.811 89.1636 244.158C89.1562 245.887 87.479 247.146 85.1353 247.146ZM83.0698 243.982C83.0625 244.964 83.8755 245.638 85.1353 245.638C86.3804 245.638 87.1934 244.964 87.2007 243.982C87.1934 242.986 86.3291 242.247 85.1353 242.254C83.9414 242.247 83.0625 242.979 83.0698 243.982ZM83.3628 239.266C83.3701 240.196 84.1025 240.833 85.1353 240.833C86.1533 240.833 86.8931 240.196 86.8931 239.266C86.8931 238.365 86.1753 237.742 85.1353 237.742C84.0732 237.742 83.3701 238.365 83.3628 239.266ZM101.395 235.076V244.788H99.769V240.335H97.2202V238.987H99.769V235.076H101.395ZM90.4819 242.093C93.3311 241.192 95.2134 239.5 95.5283 237.405H91.1704V236.072H97.3081C97.3081 239.566 95.001 242.173 91.1704 243.396L90.4819 242.093ZM92.7671 248.04V243.807H94.4224V246.722H101.732V248.04H92.7671Z" fill="#3B3B3B"/>
<path d="M22.084 268.746C22.0771 271.795 19.8965 273.982 16.3965 274.98L15.9453 274.133C18.8506 273.312 20.71 271.699 20.9424 269.635H16.5742V268.746H22.084ZM17.9961 279.943V275.418H25.8848V279.943H17.9961ZM19.0352 279.068H24.8184V276.279H19.0352V279.068ZM22.1113 272V271.098H24.8047V267.967H25.8848V274.898H24.8047V272H22.1113ZM31.5312 270.332C31.5381 271.72 32.4609 273.114 34.0195 273.723L33.4453 274.557C32.29 274.085 31.4561 273.189 31.0254 272.116C30.5742 273.292 29.6992 274.331 28.5098 274.857L27.9219 274.023C29.5215 273.312 30.499 271.72 30.5059 270.332V268.705H31.5312V270.332ZM30.041 276.867V275.979H38.2305V280.107H37.1777V276.867H30.041ZM34.5801 275.24V268.186H35.5918V271.139H37.2051V267.967H38.2305V275.309H37.2051V272.041H35.5918V275.24H34.5801ZM43.2754 268.896C44.9297 268.903 46.126 270.325 46.29 272.602H49.0176V267.953H50.084V280.135H49.0176V273.49H46.3037C46.1875 275.876 44.9707 277.366 43.2754 277.359C41.4775 277.366 40.2197 275.726 40.2266 273.135C40.2197 270.551 41.4775 268.903 43.2754 268.896ZM41.252 273.135C41.2588 275.11 42.0791 276.409 43.2754 276.402C44.4648 276.409 45.2988 275.11 45.2988 273.135C45.2988 271.159 44.4648 269.86 43.2754 269.854C42.0791 269.86 41.2588 271.159 41.252 273.135ZM56.9062 279.082C56.4277 279.075 56.0176 278.679 56.0312 278.193C56.0176 277.715 56.4277 277.318 56.9062 277.318C57.3916 277.318 57.7881 277.715 57.7812 278.193C57.7881 278.679 57.3916 279.075 56.9062 279.082ZM56.0449 272.697C56.0312 272.219 56.4414 271.822 56.9199 271.822C57.4053 271.822 57.8018 272.219 57.7949 272.697C57.8018 273.183 57.4053 273.579 56.9199 273.586C56.4414 273.579 56.0312 273.183 56.0449 272.697Z" fill="#3B3B3B"/>
<path d="M81.8096 272.174V273.507H79.8467V280.274H78.2207V267.062H79.8467V272.174H81.8096ZM69.9443 277.008V268.351H71.5557V275.66C73.3208 275.631 75.1958 275.477 77.1953 275.06L77.3711 276.437C75.1372 276.883 73.0205 277 71.0576 277.008H69.9443ZM94.5244 274.562V275.88H89.251V280.289H87.6396V275.88H82.4248V274.562H94.5244ZM83.9043 273.009V267.735H93.0449V273.009H83.9043ZM85.501 271.734H91.4189V269.039H85.501V271.734Z" fill="#2279B9"/>
<rect x="81" y="310" width="97" height="36" stroke="#999999" stroke-width="0.8"/>
<path d="M100.112 321.953V329.199H99.0322V326.014H96.585V325.125H99.0322V321.953H100.112ZM90.0908 328.229C91.8955 327.579 93.1807 325.932 93.1807 324.195V323.744H90.4326V322.842H96.9814V323.744H94.2607V324.182C94.2607 325.768 95.4775 327.278 97.2549 327.887L96.6943 328.748C95.334 328.256 94.2744 327.23 93.748 325.979C93.2285 327.401 92.1006 328.536 90.6514 329.09L90.0908 328.229ZM92.0049 331.838C91.998 330.409 93.5498 329.575 96.0791 329.582C98.6016 329.575 100.153 330.409 100.153 331.838C100.153 333.273 98.6016 334.094 96.0791 334.107C93.5498 334.094 91.998 333.273 92.0049 331.838ZM93.0713 331.838C93.0645 332.72 94.2129 333.253 96.0791 333.246C97.9385 333.253 99.0869 332.72 99.0869 331.838C99.0869 330.949 97.9385 330.416 96.0791 330.416C94.2129 330.416 93.0645 330.949 93.0713 331.838ZM111.624 321.967V325.645H113.442V326.547H111.624V330.115H110.544V321.967H111.624ZM102.081 328.871C103.052 328.871 104.187 328.871 105.376 328.837V327.941C103.961 327.812 103.045 327.162 103.052 326.15C103.045 325.043 104.187 324.359 105.896 324.359C107.618 324.359 108.739 325.043 108.753 326.15C108.739 327.155 107.851 327.805 106.442 327.941V328.796C107.577 328.741 108.726 328.646 109.792 328.488L109.888 329.268C107.249 329.732 104.344 329.753 102.204 329.746L102.081 328.871ZM102.382 323.895V323.074H105.376V321.857H106.442V323.074H109.423V323.895H102.382ZM103.571 331.578V330.717H111.624V334.107H110.544V331.578H103.571ZM104.077 326.15C104.07 326.786 104.774 327.217 105.896 327.203C107.017 327.217 107.728 326.786 107.728 326.15C107.728 325.508 107.017 325.111 105.896 325.125C104.774 325.111 104.07 325.508 104.077 326.15ZM124.052 327.654V328.529H120.292V331.674H125.364V332.576H114.235V331.674H119.239V328.529H115.657V322.951H123.929V323.826H116.737V327.654H124.052ZM135.946 322.883C135.939 324.476 138.154 325.925 140.267 326.246L139.843 327.094C137.997 326.779 136.165 325.754 135.399 324.339C134.634 325.781 132.795 326.793 130.942 327.107L130.519 326.26C132.645 325.932 134.839 324.523 134.839 322.883V322.268H135.946V322.883ZM129.835 329.035V328.146H140.964V329.035H136.015V331.523H134.948V329.035H129.835ZM131.257 333.848V330.334H132.337V332.945H139.72V333.848H131.257Z" fill="#333333"/>
<path d="M163.825 325L160 328.817L156.175 325L155 326.175L160 331.175L165 326.175L163.825 325Z" fill="#333333"/>
<rect x="188" y="310" width="102" height="36" stroke="#999999" stroke-width="0.8"/>
<path d="M198.234 323.102V333H196.99V324.387H196.936L194.529 325.986V324.742L196.99 323.102H198.234ZM204.113 333.137C201.919 333.137 200.647 331.291 200.654 328.051C200.647 324.838 201.933 322.965 204.113 322.965C206.287 322.965 207.572 324.838 207.572 328.051C207.572 331.291 206.308 333.137 204.113 333.137ZM201.844 328.051C201.851 330.614 202.678 332.043 204.113 332.043C205.542 332.043 206.376 330.614 206.369 328.051C206.376 325.487 205.535 324.038 204.113 324.031C202.691 324.038 201.851 325.487 201.844 328.051ZM219.152 321.953V334.107H218.1V327.75H216.418V333.506H215.393V322.281H216.418V326.861H218.1V321.953H219.152ZM208.789 330.744C211.612 329.165 212.774 326.943 212.959 324.428H209.254V323.539H214.012C213.998 326.629 212.911 329.548 209.418 331.496L208.789 330.744ZM231.033 329.746V334.107H229.967V330.607H222.693V329.746H231.033ZM220.793 327.695C222.201 326.868 222.714 325.159 222.707 323.977V322.691H223.732V323.977C223.739 324.913 223.992 326.362 224.942 327.347C225.865 326.39 226.125 324.975 226.125 323.977V322.691H227.137V323.977C227.13 325.303 227.663 326.937 229.078 327.695L228.49 328.475C227.54 327.941 226.966 327.032 226.651 326.027C226.385 327.039 225.865 328.017 224.936 328.598C223.999 328.017 223.473 326.998 223.206 325.979C222.892 326.978 222.324 327.921 221.395 328.475L220.793 327.695ZM229.967 329.104V321.953H231.033V329.104H229.967ZM247.617 331.66V332.549H236.488V331.66H241.492V329.035H237.801V322.814H238.881V325.016H245.197V322.814H246.25V329.035H242.545V331.66H247.617ZM238.881 328.16H245.197V325.891H238.881V328.16ZM258.637 321.953V334.107H257.557V321.953H258.637ZM248.738 330.949C252.026 329.391 253.708 327.06 253.947 324.154H249.299V323.279H255.041C255.027 326.772 253.4 329.869 249.326 331.824L248.738 330.949Z" fill="#333333"/>
<path d="M276.825 325L273 328.817L269.175 325L268 326.175L273 331.175L278 326.175L276.825 325Z" fill="#333333"/>
<rect width="60" height="36" transform="translate(300 310)" fill="#004064"/>
<path d="M322.617 324.195C322.617 325.774 323.834 327.285 325.611 327.9L325.051 328.748C323.684 328.256 322.624 327.237 322.104 325.986C321.578 327.381 320.45 328.502 319.008 329.035L318.447 328.188C320.238 327.545 321.537 325.925 321.537 324.209V323.676H318.789V322.801H325.338V323.676H322.617V324.195ZM320.293 330.771V329.883H328.469V334.107H327.389V330.771H320.293ZM324.955 326.041V325.139H327.389V321.953H328.469V329.24H327.389V326.041H324.955ZM341.566 327.969V328.857H330.492V327.969H333.24V326.253C332.27 325.877 331.723 325.262 331.723 324.441C331.723 323.013 333.363 322.192 336.029 322.186C338.675 322.192 340.315 323.013 340.322 324.441C340.315 325.255 339.775 325.87 338.818 326.253V327.969H341.566ZM331.832 331.934C331.825 330.546 333.391 329.78 336.029 329.787C338.634 329.78 340.199 330.546 340.213 331.934C340.199 333.321 338.634 334.08 336.029 334.08C333.391 334.08 331.825 333.321 331.832 331.934ZM332.83 324.441C332.823 325.33 334.04 325.843 336.029 325.85C337.998 325.843 339.222 325.33 339.229 324.441C339.222 323.566 337.998 323.033 336.029 323.033C334.04 323.033 332.823 323.566 332.83 324.441ZM332.926 331.934C332.912 332.761 334.081 333.253 336.029 333.246C337.957 333.253 339.126 332.761 339.133 331.934C339.126 331.106 337.957 330.621 336.029 330.607C334.081 330.621 332.912 331.106 332.926 331.934ZM334.307 327.969H337.752V326.54C337.239 326.636 336.665 326.684 336.029 326.684C335.394 326.684 334.819 326.636 334.307 326.547V327.969Z" fill="white"/>
<rect width="400" height="36" transform="translate(0 366)" fill="#337AA6"/>
<rect width="100" height="28" transform="translate(100 370)" fill="#337AA6"/>
<path d="M131.236 378.087C131.229 381.28 128.849 383.602 125.143 384.664L124.747 383.932C127.918 383.016 130.021 381.214 130.248 378.863H125.392V378.087H131.236ZM126.886 389.952V385.206H135.221V389.952H126.886ZM127.794 389.176H134.312V385.953H127.794V389.176ZM131.251 381.427V380.65H134.298V377.223H135.221V384.649H134.298V381.427H131.251ZM141.3 379.83C141.3 381.317 142.376 382.826 144.024 383.463L143.526 384.195C142.252 383.668 141.314 382.665 140.86 381.478C140.392 382.76 139.41 383.917 138.121 384.503L137.608 383.785C139.278 383.038 140.414 381.31 140.421 379.83V378.014H141.3V379.83ZM139.82 386.554V385.792H148.463V390.143H147.569V386.554H139.82ZM144.771 384.957V377.472H145.65V380.665H147.584V377.223H148.463V385.03H147.584V381.456H145.65V384.957H144.771ZM162.306 384.122V384.898H156.915V387.564H156.007V384.898H150.484V384.122H162.306ZM152.037 389.835V386.319H152.96V389.059H160.987V389.835H152.037ZM152.081 382.745V377.633H153.004V379.391H159.801V377.633H160.724V382.745H152.081ZM153.004 381.969H159.801V380.123H153.004V381.969ZM175.27 384.957V385.719H172.047V390.143H171.124V385.719H167.579V390.143H166.656V385.719H163.448V384.957H175.27ZM164.884 378.541V377.75H173.819V380.914H165.851V382.716H174.098V383.492H164.928V380.182H172.882V378.541H164.884Z" fill="white"/>
<rect width="81" height="28" transform="translate(200 370)" fill="#337AA6"/>
<path d="M238.721 377.223V390.157H237.798V382.76H234.78V381.983H237.798V377.223H238.721ZM227.983 386.803C229.756 385.931 231.484 383.5 231.499 381.251V379.361H228.467V378.57H235.469V379.361H232.422V381.251C232.422 383.353 234.128 385.689 235.923 386.51L235.352 387.257C233.901 386.539 232.554 384.913 231.975 383.089C231.389 385.03 230.005 386.759 228.555 387.535L227.983 386.803ZM245.269 381.339C245.261 383.434 246.917 385.719 248.696 386.583L248.154 387.315C246.719 386.59 245.408 385.008 244.829 383.207C244.236 385.147 242.837 386.883 241.416 387.638L240.845 386.905C242.603 386.026 244.368 383.558 244.375 381.339V379.361H241.299V378.57H248.286V379.361H245.269V381.339ZM250.059 390.143V377.223H250.981V382.54H253.208V383.331H250.981V390.143H250.059Z" fill="white"/>
<rect width="100" height="28" transform="translate(281 370)" fill="#337AA6"/>
<path d="M313.58 377.75V379.713H317.711V377.75H318.619V383.375H312.672V377.75H313.58ZM313.58 382.599H317.711V380.46H313.58V382.599ZM313.99 385.338V384.576H322.135V387.579H314.928V389.205H322.633V389.981H314.02V386.861H321.212V385.338H313.99ZM321.212 383.932V377.223H322.135V380.123H324.127V380.899H322.135V383.932H321.212ZM335.963 377.223V385.426H335.084V381.617H333.121V384.957H332.257V377.472H333.121V380.855H335.084V377.223H335.963ZM324.962 379.61V378.834H327.877V377.311H328.8V378.834H331.686V379.61H324.962ZM325.577 382.569C325.57 381.222 326.698 380.365 328.331 380.357C329.972 380.365 331.085 381.222 331.1 382.569C331.085 383.902 329.972 384.752 328.331 384.752C326.698 384.752 325.57 383.902 325.577 382.569ZM326.397 382.569C326.405 383.434 327.188 384.042 328.331 384.034C329.466 384.042 330.25 383.434 330.25 382.569C330.25 381.69 329.466 381.083 328.331 381.075C327.188 381.083 326.405 381.69 326.397 382.569ZM327.438 387.901C327.438 386.473 329.034 385.675 331.744 385.675C334.432 385.675 336.036 386.473 336.036 387.901C336.036 389.3 334.432 390.099 331.744 390.099C329.034 390.099 327.438 389.3 327.438 387.901ZM328.36 387.901C328.346 388.81 329.642 389.374 331.744 389.366C333.824 389.374 335.113 388.81 335.128 387.901C335.113 386.957 333.824 386.407 331.744 386.422C329.642 386.407 328.346 386.957 328.36 387.901ZM348.648 377.223V386.817H347.726V382.262H343.829V381.485H347.726V379.771H343.829V379.01H347.726V377.223H348.648ZM338.775 384.796V378.204H339.713V384.005H339.742C341.573 384.005 343.353 383.91 345.44 383.521L345.558 384.312C343.382 384.708 341.617 384.796 339.742 384.796H338.775ZM340.416 389.835V386.012H341.339V389.059H349.015V389.835H340.416Z" fill="white"/>
<rect width="100" height="32" transform="translate(0 370)" fill="white"/>
<path d="M30.9102 379.018V392.348H29.1084V379.018H30.9102ZM19.7627 389.374V380.526H24.8604V382.021H21.5938V387.829C23.0146 387.814 24.0986 387.733 25.3438 387.484L25.4902 389.008C23.9814 389.308 22.6411 389.374 20.6855 389.374H19.7627ZM23.9521 385.404V383.881H26.3398V379.252H28.083V391.747H26.3398V385.404H23.9521ZM43.4785 379.018V392.377H41.5889V379.018H43.4785ZM32.7119 384.701C32.7046 381.793 34.1914 379.955 36.2422 379.955C38.249 379.955 39.7432 381.793 39.7432 384.701C39.7432 387.631 38.249 389.462 36.2422 389.462C34.1914 389.462 32.7046 387.631 32.7119 384.701ZM34.5137 384.701C34.5063 386.686 35.2021 387.77 36.2422 387.763C37.2529 387.77 37.9341 386.686 37.9414 384.701C37.9341 382.724 37.2529 381.64 36.2422 381.64C35.2021 381.64 34.5063 382.724 34.5137 384.701ZM56.5303 379.018V392.377H54.6846V385.229H52.3408V383.72H54.6846V379.018H56.5303ZM45.8955 389.359V380.131H52.1211V381.64H47.7559V383.852H51.6377V385.316H47.7559V387.836C49.6089 387.821 51.0884 387.755 52.7363 387.499L52.9268 388.993C50.9785 389.286 49.2354 389.352 46.9502 389.359H45.8955ZM70.4316 386.43V387.938H67.5752V392.348H65.6709V387.938H62.9463V392.348H61.0273V387.938H58.2295V386.43H70.4316ZM59.46 382.475C59.4526 380.636 61.4302 379.464 64.2939 379.457C67.1577 379.464 69.1572 380.636 69.1572 382.475C69.1572 384.269 67.1577 385.412 64.2939 385.404C61.4302 385.412 59.4526 384.269 59.46 382.475ZM61.3789 382.475C61.3716 383.412 62.5068 383.932 64.2939 383.939C66.0957 383.932 67.2236 383.412 67.2236 382.475C67.2236 381.493 66.0957 380.958 64.2939 380.951C62.5068 380.958 61.3716 381.493 61.3789 382.475ZM78.6494 380.248V381.728H71.2373V380.248H74.1084V378.9H75.9688V380.248H78.6494ZM71.8965 384.672C71.8818 383.192 73.1782 382.174 75.0166 382.167C76.8477 382.174 78.166 383.192 78.1807 384.672C78.166 386.166 76.8477 387.155 75.0166 387.147C73.1782 387.155 71.8818 386.166 71.8965 384.672ZM73.3174 390.019C73.3101 388.539 75.0679 387.667 77.917 387.675C80.7515 387.667 82.5093 388.539 82.5166 390.019C82.5093 391.469 80.7515 392.355 77.917 392.348C75.0679 392.355 73.3101 391.469 73.3174 390.019ZM73.6396 384.672C73.6323 385.39 74.1743 385.771 75.0166 385.771C75.8516 385.771 76.4375 385.39 76.4375 384.672C76.4375 383.961 75.8516 383.566 75.0166 383.559C74.1743 383.566 73.6323 383.961 73.6396 384.672ZM75.2803 390.019C75.2803 390.626 76.2104 390.941 77.917 390.941C79.5869 390.941 80.5098 390.626 80.5098 390.019C80.5098 389.381 79.5869 389.096 77.917 389.081C76.2104 389.096 75.2803 389.381 75.2803 390.019ZM78.7666 386.107V384.613H80.583V383.441H78.7959V381.947H80.583V379.018H82.4434V387.514H80.583V386.107H78.7666Z" fill="#3B3B3B"/>
<path d="M10.043 425.459C12.7158 425.459 14.7256 426.812 14.7324 428.863C14.7256 430.743 13.1396 432.001 10.9043 432.247V434.373H15.7578V435.809H4.36914V434.373H9.16797V432.247C6.94629 431.994 5.36719 430.736 5.36719 428.863C5.36719 426.812 7.37012 425.459 10.043 425.459ZM7.08984 428.863C7.08984 430.176 8.2998 430.907 10.043 430.914C11.793 430.907 13.0029 430.176 13.0098 428.863C13.0029 427.619 11.793 426.847 10.043 426.854C8.2998 426.847 7.08984 427.619 7.08984 428.863ZM27.8574 434.359V435.809H16.4688V434.359H27.8574ZM17.3574 427.305V425.91H26.9004V427.305H25.1504V431.078H26.8457V432.445H17.4121V431.078H19.0801V427.305H17.3574ZM20.8301 431.078H23.4277V427.305H20.8301V431.078ZM38.3848 424.816V429.52H40.2168V430.955H38.3848V437.285H36.6621V424.816H38.3848ZM29.0742 427.264V425.855H34.8301V430.682H30.8242V432.938C32.6357 432.931 34.1328 432.849 35.7871 432.568L35.9375 433.963C34.0371 434.312 32.3281 434.387 30.1406 434.387H29.0879V429.301H33.0938V427.264H29.0742ZM51.0859 424.83V433.771H49.3359V424.83H51.0859ZM40.8594 428.754C40.8594 426.929 42.3496 425.616 44.2637 425.623C46.1709 425.616 47.6611 426.929 47.668 428.754C47.6611 430.606 46.1709 431.912 44.2637 431.912C42.3496 431.912 40.8594 430.606 40.8594 428.754ZM42.5684 428.754C42.5547 429.793 43.2861 430.395 44.2637 430.395C45.207 430.395 45.9385 429.793 45.9453 428.754C45.9385 427.742 45.207 427.134 44.2637 427.141C43.2861 427.134 42.5547 427.742 42.5684 428.754ZM42.7461 437.039V432.869H44.5098V435.645H51.4141V437.039H42.7461ZM57.3613 428.207C57.3545 430.101 58.3662 432.288 60.4102 433.238L59.4395 434.605C58.0518 433.97 57.0674 432.698 56.5068 431.208C55.9531 432.849 54.9277 434.243 53.4922 434.92L52.4805 433.539C54.5518 432.575 55.5977 430.265 55.6113 428.207V427.441H52.9727V426.02H59.8633V427.441H57.3613V428.207ZM60.834 437.258V424.816H62.584V429.561H64.416V431.023H62.584V437.258H60.834ZM76.2559 434.441V435.877H64.8672V434.441H67.7793V432.541H66.1797V428.357H73.2207V427.018H66.166V425.623H74.9434V429.752H67.9297V431.133H75.2305V432.541H73.4668V434.441H76.2559ZM69.4746 434.441H71.7578V432.541H69.4746V434.441Z" fill="#337AA6"/>
<path d="M120.566 431.434V432.322H109.492V431.434H114.496V430.162C112.165 430.039 110.723 429.164 110.723 427.729C110.723 426.231 112.391 425.329 115.029 425.322C117.641 425.329 119.315 426.231 119.322 427.729C119.315 429.164 117.866 430.039 115.562 430.162V431.434H120.566ZM110.928 436.848V433.307H112.008V435.945H119.336V436.848H110.928ZM111.83 427.729C111.823 428.72 113.067 429.287 115.029 429.287C116.978 429.287 118.222 428.72 118.229 427.729C118.222 426.799 116.978 426.197 115.029 426.197C113.067 426.197 111.823 426.799 111.83 427.729ZM130.998 424.953V429.793H133.035V430.695H130.998V437.135H129.932V424.953H130.998ZM122.07 426.977V426.088H127.594V430.436H123.164V433.279C125.42 433.286 126.999 433.197 128.838 432.855L128.947 433.744C127.033 434.093 125.413 434.182 123.068 434.195H122.098V429.547H126.527V426.977H122.07ZM143.727 424.967V433.854H142.66V424.967H143.727ZM133.979 428.795C133.972 427.045 135.346 425.821 137.164 425.814C138.982 425.821 140.343 427.045 140.35 428.795C140.343 430.565 138.982 431.796 137.164 431.789C135.346 431.796 133.972 430.565 133.979 428.795ZM135.031 428.795C135.018 430.005 135.934 430.846 137.164 430.846C138.374 430.846 139.297 430.005 139.297 428.795C139.297 427.605 138.374 426.758 137.164 426.758C135.934 426.758 135.018 427.605 135.031 428.795ZM135.879 436.848V432.951H136.945V435.945H144.109V436.848H135.879ZM153.42 428.686C153.406 430.634 154.814 432.78 156.578 433.621L155.963 434.469C154.596 433.799 153.44 432.363 152.894 430.716C152.333 432.5 151.116 434.072 149.756 434.77L149.1 433.922C150.85 433.067 152.354 430.757 152.367 428.686V427.1H149.537V426.211H156.154V427.1H153.42V428.686ZM157.645 437.107V424.953H158.711V429.875H160.748V430.791H158.711V437.107H157.645ZM172.533 434.701V435.604H161.404V434.701H164.535V432.391H162.799V428.645H170.072V426.744H162.771V425.855H171.125V429.533H163.865V431.502H171.412V432.391H169.512V434.701H172.533ZM165.588 434.701H168.459V432.391H165.588V434.701Z" fill="#3B3B3B"/>
<path d="M216.869 424.953V437.107H215.816V430.75H214.135V436.506H213.109V425.281H214.135V429.861H215.816V424.953H216.869ZM206.506 433.744C209.329 432.165 210.491 429.943 210.676 427.428H206.971V426.539H211.729C211.715 429.629 210.628 432.548 207.135 434.496L206.506 433.744ZM228.627 424.967V433.854H227.561V424.967H228.627ZM218.879 428.795C218.872 427.045 220.246 425.821 222.064 425.814C223.883 425.821 225.243 427.045 225.25 428.795C225.243 430.565 223.883 431.796 222.064 431.789C220.246 431.796 218.872 430.565 218.879 428.795ZM219.932 428.795C219.918 430.005 220.834 430.846 222.064 430.846C223.274 430.846 224.197 430.005 224.197 428.795C224.197 427.605 223.274 426.758 222.064 426.758C220.834 426.758 219.918 427.605 219.932 428.795ZM220.779 436.848V432.951H221.846V435.945H229.01V436.848H220.779ZM240.768 424.953V432.158H239.688V430.244H236.844V431.283H231.266V425.883H236.844V426.936H239.688V424.953H240.768ZM232.332 430.408H235.791V426.758H232.332V430.408ZM232.66 434.811C232.653 433.348 234.205 432.507 236.734 432.514C239.257 432.507 240.809 433.348 240.809 434.811C240.809 436.26 239.257 437.08 236.734 437.08C234.205 437.08 232.653 436.26 232.66 434.811ZM233.727 434.811C233.72 435.692 234.868 436.232 236.734 436.232C238.594 436.232 239.742 435.692 239.742 434.811C239.742 433.895 238.594 433.361 236.734 433.348C234.868 433.361 233.72 433.895 233.727 434.811ZM236.844 429.342H239.688V427.824H236.844V429.342Z" fill="#3B3B3B"/>
<path d="M284.994 424.953V428.576H286.84V429.479H284.994V433.758H283.928V424.953H284.994ZM276.066 431.598V426.006H281.48V426.908H277.133V430.695C279.573 430.702 280.961 430.627 282.588 430.299L282.725 431.188C281.016 431.516 279.566 431.598 277.01 431.598H276.066ZM277.393 436.848V432.869H278.445V435.945H285.555V436.848H277.393ZM291.146 428.699C291.153 430.654 292.145 432.657 293.799 433.539L293.184 434.346C291.974 433.683 291.099 432.425 290.654 430.962C290.224 432.521 289.355 433.888 288.139 434.619L287.496 433.799C289.15 432.842 290.128 430.709 290.135 428.699V428.098H287.824V427.209H290.135V425.404H291.16V427.209H293.43V428.098H291.146V428.699ZM292.596 430.668V429.752H294.51V425.254H295.521V436.479H294.51V430.668H292.596ZM296.957 437.107V424.953H297.982V437.107H296.957ZM309.768 424.953V432.158H308.688V430.244H305.844V431.283H300.266V425.883H305.844V426.936H308.688V424.953H309.768ZM301.332 430.408H304.791V426.758H301.332V430.408ZM301.66 434.811C301.653 433.348 303.205 432.507 305.734 432.514C308.257 432.507 309.809 433.348 309.809 434.811C309.809 436.26 308.257 437.08 305.734 437.08C303.205 437.08 301.653 436.26 301.66 434.811ZM302.727 434.811C302.72 435.692 303.868 436.232 305.734 436.232C307.594 436.232 308.742 435.692 308.742 434.811C308.742 433.895 307.594 433.361 305.734 433.348C303.868 433.361 302.72 433.895 302.727 434.811ZM305.844 429.342H308.688V427.824H305.844V429.342Z" fill="#3B3B3B"/>
<path d="M350.631 426.676C350.624 428.303 352.791 429.684 354.91 429.998L354.514 430.846C352.62 430.524 350.768 429.513 350.029 428.05C349.291 429.513 347.438 430.524 345.572 430.846L345.148 429.998C347.261 429.684 349.421 428.303 349.428 426.676V426.594H345.531V425.719H354.514V426.594H350.631V426.676ZM344.492 432.773V431.885H355.566V432.773H350.535V437.107H349.482V432.773H344.492ZM366.982 424.953V437.107H365.957V424.953H366.982ZM356.441 433.867C358.137 432.855 359.128 430.634 359.121 428.426V427.277H356.783V426.389H362.389V427.277H360.16V428.426C360.16 430.524 361.11 432.623 362.785 433.594L362.129 434.387C360.933 433.669 360.085 432.356 359.661 430.812C359.224 432.486 358.342 433.915 357.125 434.674L356.441 433.867ZM361.459 430.217V429.342H363.51V425.254H364.521V436.479H363.51V430.217H361.459ZM378.768 424.953V432.158H377.688V430.244H374.844V431.283H369.266V425.883H374.844V426.936H377.688V424.953H378.768ZM370.332 430.408H373.791V426.758H370.332V430.408ZM370.66 434.811C370.653 433.348 372.205 432.507 374.734 432.514C377.257 432.507 378.809 433.348 378.809 434.811C378.809 436.26 377.257 437.08 374.734 437.08C372.205 437.08 370.653 436.26 370.66 434.811ZM371.727 434.811C371.72 435.692 372.868 436.232 374.734 436.232C376.594 436.232 377.742 435.692 377.742 434.811C377.742 433.895 376.594 433.361 374.734 433.348C372.868 433.361 371.72 433.895 371.727 434.811ZM374.844 429.342H377.688V427.824H374.844V429.342Z" fill="#3B3B3B"/>
<rect x="15" y="552" width="50" height="20" rx="2" fill="#004064"/>
<path d="M34.0435 557.331V564.335H33.1948V560.672H31.229V559.974H33.1948V557.331H34.0435ZM26.1694 562.423C27.5767 561.929 28.5972 560.667 28.5972 559.297V558.803H26.438V558.104H31.5835V558.803H29.4458V559.297C29.4458 560.532 30.4019 561.73 31.7983 562.208L31.3579 562.885C30.2837 562.493 29.4512 561.692 29.0376 560.704C28.624 561.811 27.7432 562.686 26.6099 563.11L26.1694 562.423ZM27.9097 566.666V563.701H28.7583V565.957H34.312V566.666H27.9097ZM38.8667 560.253C38.856 561.784 39.9624 563.47 41.3481 564.131L40.8647 564.797C39.7905 564.271 38.8828 563.143 38.4531 561.848C38.0127 563.25 37.0566 564.485 35.9878 565.033L35.4722 564.367C36.8472 563.696 38.0288 561.88 38.0396 560.253V559.007H35.8159V558.309H41.0151V559.007H38.8667V560.253ZM42.186 566.87V557.32H43.0239V561.188H44.6245V561.907H43.0239V566.87H42.186ZM47.9653 559.394C47.9653 560.521 48.7173 561.623 49.9312 562.068L49.5229 562.724C48.5938 562.353 47.9277 561.639 47.5894 560.779C47.2563 561.714 46.585 562.487 45.6343 562.896L45.2153 562.262C46.4346 561.762 47.1597 560.607 47.1704 559.394V559.275H45.4087V558.588H47.1704V557.438H47.9653V558.588H49.6948V559.275H47.9653V559.394ZM46.8159 564.378V563.69H53.2505V566.87H52.4233V564.378H46.8159ZM50.3823 563.132V557.503H51.1987V559.888H52.4448V557.331H53.2505V563.175H52.4448V560.586H51.1987V563.132H50.3823Z" fill="white"/>
<path d="M28.4893 589.395V594.791H23.9541V596.619H30.3174V597.973H15.9561V596.619H22.3018V594.791H17.7842V589.395H28.4893ZM17.5557 600.785V599.467H28.5596V604.494H26.8721V600.785H17.5557ZM19.4189 593.455H26.8369V590.713H19.4189V593.455ZM40.46 590.168V591.521H38.9658V596.461C39.7129 596.408 40.4424 596.338 41.1455 596.25L41.251 597.498C38.0781 597.999 34.4043 598.069 31.7061 598.078L31.5127 596.707C32.1191 596.707 32.7695 596.698 33.4463 596.689V591.521H31.9521V590.168H40.46ZM33.9033 604.16V599.238H35.5732V602.807H44.5557V604.16H33.9033ZM35.0635 596.654C35.8105 596.628 36.5664 596.602 37.3311 596.566V591.521H35.0635V596.654ZM42.2178 600.346V588.762H43.8877V593.42H46.1729V594.826H43.8877V600.346H42.2178ZM61.4834 601.137V602.525H47.0693V601.137H53.415V597.498H48.7217V590.01H59.7607V597.498H55.0674V601.137H61.4834ZM50.3389 596.18H58.126V591.346H50.3389V596.18ZM75.6865 588.762V597.727H74.0166V588.762H75.6865ZM62.9424 593.279C62.9512 591.056 64.7266 589.544 67.1436 589.553C69.5518 589.544 71.3271 591.056 71.3271 593.279C71.3271 595.441 69.5518 596.971 67.1436 596.971C64.7266 596.971 62.9512 595.441 62.9424 593.279ZM64.5771 593.279C64.5684 594.633 65.6494 595.564 67.1436 595.564C68.6201 595.564 69.6924 594.633 69.6924 593.279C69.6924 591.882 68.6201 590.95 67.1436 590.959C65.6494 590.95 64.5684 591.882 64.5771 593.279ZM65.333 604.301V598.518H75.6865V604.301H65.333ZM66.9854 602.947H74.0518V599.854H66.9854V602.947ZM88.7646 596.812V598.43H83.1221V596.812H88.7646ZM109.577 594.932V596.303H107.134V604.477H105.464V588.744H107.134V594.932H109.577ZM95.4619 600.521V590.273H97.1143V599.133C99.3115 599.124 101.605 598.939 104.11 598.43L104.304 599.836C101.605 600.372 99.127 600.53 96.7627 600.521H95.4619ZM124.817 597.779V599.133H118.384V604.477H116.749V599.133H110.403V597.779H124.817ZM112.214 595.775V589.588H123.007V595.775H112.214ZM113.849 594.475H121.337V590.924H113.849V594.475ZM138.599 594.545V595.863H127.911V589.641H138.405V590.994H129.599V594.545H138.599ZM125.96 599.133V597.779H140.374V599.133H133.94V604.459H132.306V599.133H125.96ZM154.665 588.762V600.398H152.995V594.457H149.55V597.779H142.29V589.799H143.96V592.471H147.897V589.799H149.55V593.104H152.995V588.762H154.665ZM143.96 596.426H147.897V593.754H143.96V596.426ZM144.382 604.16V599.256H146.069V602.807H155.017V604.16H144.382ZM170.872 588.744V604.494H169.272V596.443H167.761V603.721H166.214V589.043H167.761V595.072H169.272V588.744H170.872ZM156.739 599.643C158.567 598.201 158.857 595.397 158.866 593.367V591.943H157.302V590.607H161.187V591.943H160.325V593.367C160.308 594.765 160.378 597.076 161.424 598.79C162.443 597.146 162.496 594.932 162.505 593.367V591.943H161.644V590.607H165.388V591.943H163.964V593.367C163.946 595.45 164.263 598.21 166.091 599.643L165.142 600.803C164.184 600.029 163.595 598.852 163.261 597.542C162.953 598.887 162.408 600.144 161.415 600.961C160.422 600.126 159.868 598.852 159.561 597.498C159.227 598.816 158.655 600.021 157.706 600.803L156.739 599.643ZM185.778 588.762V600.293H184.108V594.369H181.103V593.016H184.108V588.762H185.778ZM172.665 597.006C175.082 596.188 176.594 594.114 176.585 591.943V591.328H173.175V589.957H181.665V591.328H178.29V591.943C178.281 593.903 179.705 595.881 182.087 596.672L181.226 598.008C179.459 597.393 178.149 596.127 177.464 594.562C176.778 596.303 175.398 597.691 173.526 598.359L172.665 597.006ZM175.548 604.16V599.256H177.218V602.807H186.2V604.16H175.548Z" fill="black"/>
<rect x="343" y="587.5" width="17" height="17" rx="2" fill="white" stroke="#666666"/>
<path d="M26.3594 629.164V642.216H25.2021V634.862H22.3457V633.91H25.2021V629.164H26.3594ZM15.4463 638.715C17.3359 637.799 18.9106 635.346 18.918 633.031V631.464H15.9443V630.512H23.0635V631.464H20.0752V633.031C20.0825 635.199 21.6353 637.558 23.5322 638.422L22.8438 639.345C21.3569 638.612 20.1045 637.038 19.5112 635.221C18.9253 637.155 17.6362 638.832 16.1494 639.608L15.4463 638.715ZM32.9365 633.163C32.9219 635.25 34.4307 637.55 36.3203 638.451L35.6611 639.359C34.1963 638.642 32.9585 637.104 32.3726 635.338C31.772 637.25 30.4683 638.935 29.0107 639.682L28.3076 638.773C30.1826 637.858 31.7939 635.382 31.8086 633.163V631.464H28.7764V630.512H35.8662V631.464H32.9365V633.163ZM37.4629 642.187V629.164H38.6055V634.438H40.7881V635.419H38.6055V642.187H37.4629Z" fill="black"/>
<path d="M105.736 634.467V635.258H103.554V642.143H102.631V629.223H103.554V634.467H105.736ZM94.1787 638.817V630.497H95.0869V638.026H95.1748C97.123 638.034 99.0786 637.887 101.269 637.426L101.386 638.231C99.1372 638.678 97.167 638.817 95.1748 638.817H94.1787ZM118.378 636.825V637.602H112.885V642.128H111.991V637.602H106.557V636.825H118.378ZM108.124 634.936V629.955H116.811V634.936H108.124ZM109.032 634.203H115.902V630.731H109.032V634.203Z" fill="black"/>
<path d="M17.2661 663.721V665.596H21.0601V663.721H22.2026V669.39H16.1382V663.721H17.2661ZM17.2661 668.452H21.0601V666.489H17.2661V668.452ZM17.4565 671.44V670.518H25.7622V673.667H18.6138V675.103H26.2456V676.04H17.4858V672.788H24.6196V671.44H17.4565ZM24.6196 669.902V663.164H25.7622V665.991H27.7251V666.958H25.7622V669.902H24.6196ZM39.605 663.164V671.411H38.5063V667.676H36.7632V670.942H35.6792V663.428H36.7632V666.724H38.5063V663.164H39.605ZM28.4722 665.654V664.731H31.2554V663.267H32.3979V664.731H35.1519V665.654H28.4722ZM29.0435 668.584C29.0361 667.222 30.186 666.35 31.8267 666.357C33.4746 666.35 34.6172 667.222 34.6245 668.584C34.6172 669.924 33.4746 670.796 31.8267 670.796C30.186 670.796 29.0361 669.924 29.0435 668.584ZM30.0688 668.584C30.0688 669.382 30.7866 669.932 31.8267 669.932C32.8667 669.932 33.5845 669.382 33.5845 668.584C33.5845 667.756 32.8667 667.207 31.8267 667.207C30.7866 667.207 30.0688 667.756 30.0688 668.584ZM30.9331 673.916C30.9185 672.451 32.5518 671.631 35.2983 671.631C38.0376 671.631 39.6709 672.451 39.6782 673.916C39.6709 675.344 38.0376 676.157 35.2983 676.157C32.5518 676.157 30.9185 675.344 30.9331 673.916ZM32.0757 673.916C32.061 674.758 33.2695 675.271 35.2983 675.264C37.3198 675.271 38.521 674.758 38.5356 673.916C38.521 673.022 37.3198 672.524 35.2983 672.539C33.2695 672.524 32.061 673.022 32.0757 673.916ZM52.3052 663.164V676.216H51.1479V669.36H48.2915V668.408H51.1479V663.164H52.3052ZM41.5386 672.773C43.4502 671.88 44.8784 669.653 44.8784 667.412V666.372H41.8901V665.435H44.8784V663.413H46.021V665.435H48.9653V666.372H46.0063V667.412C46.0063 669.558 47.4785 671.675 49.4048 672.539L48.7456 673.433C47.2588 672.759 46.0356 671.331 45.457 669.617C44.8931 671.433 43.6846 672.949 42.1978 673.667L41.5386 672.773Z" fill="black"/>
<path d="M105.736 668.467V669.258H103.554V676.143H102.631V663.223H103.554V668.467H105.736ZM94.1787 672.817V664.497H95.0869V672.026H95.1748C97.123 672.034 99.0786 671.887 101.269 671.426L101.386 672.231C99.1372 672.678 97.167 672.817 95.1748 672.817H94.1787ZM118.378 670.825V671.602H112.885V676.128H111.991V671.602H106.557V670.825H118.378ZM108.124 668.936V663.955H116.811V668.936H108.124ZM109.032 668.203H115.902V664.731H109.032V668.203Z" fill="black"/>
<path d="M20.0088 701.163C19.9941 703.25 21.5029 705.55 23.3926 706.451L22.7334 707.359C21.2686 706.642 20.0308 705.104 19.4448 703.338C18.8442 705.25 17.5405 706.935 16.083 707.682L15.3799 706.773C17.2549 705.858 18.8662 703.382 18.8809 701.163V699.464H15.8486V698.512H22.9385V699.464H20.0088V701.163ZM24.5352 710.187V697.164H25.6777V702.438H27.8604V703.419H25.6777V710.187H24.5352ZM40.4873 707.608V708.575H28.5635V707.608H31.918V705.133H30.0576V701.119H37.8506V699.083H30.0283V698.131H38.9785V702.071H31.2002V704.181H39.2861V705.133H37.25V707.608H40.4873ZM33.0459 707.608H36.1221V705.133H33.0459V707.608ZM53.4365 704.591V705.543H50.2871V710.187H49.1299V705.543H45.79V710.187H44.6035V705.543H41.5127V704.591H53.4365ZM42.8604 700.533C42.8677 698.797 44.7061 697.699 47.4453 697.691C50.1772 697.699 52.0303 698.797 52.0303 700.533C52.0303 702.269 50.1772 703.353 47.4453 703.346C44.7061 703.353 42.8677 702.269 42.8604 700.533ZM44.0469 700.533C44.0322 701.683 45.4165 702.423 47.4453 702.423C49.4741 702.423 50.8511 701.683 50.8584 700.533C50.8511 699.376 49.4741 698.629 47.4453 698.629C45.4165 698.629 44.0322 699.376 44.0469 700.533ZM61.874 698.629V699.566H54.5059V698.629H57.6699V697.062H58.8125V698.629H61.874ZM55.2822 702.643C55.2676 701.192 56.4688 700.233 58.2266 700.24C59.9697 700.233 61.1929 701.192 61.2002 702.643C61.1929 704.1 59.9697 705.052 58.2266 705.06C56.4688 705.052 55.2676 704.1 55.2822 702.643ZM56.3516 702.643C56.3442 703.558 57.0913 704.173 58.2266 704.166C59.3472 704.173 60.1162 703.558 60.1309 702.643C60.1162 701.727 59.3472 701.119 58.2266 701.104C57.0913 701.119 56.3442 701.727 56.3516 702.643ZM56.6152 707.945C56.6152 706.524 58.2632 705.719 60.9951 705.719C63.7124 705.719 65.3604 706.524 65.3604 707.945C65.3604 709.344 63.7124 710.157 60.9951 710.157C58.2632 710.157 56.6152 709.344 56.6152 707.945ZM57.8018 707.945C57.8091 708.773 59.0176 709.271 60.9951 709.264C62.9434 709.271 64.1445 708.773 64.1445 707.945C64.1445 707.096 62.9434 706.62 60.9951 706.612C59.0176 706.62 57.8091 707.096 57.8018 707.945ZM61.8594 703.785V702.833H64.1299V701.251H61.874V700.299H64.1299V697.164H65.2871V705.587H64.1299V703.785H61.8594Z" fill="black"/>
<path d="M105.71 704.166V704.957H93.9326V704.166H99.3672V702.708C96.8477 702.621 95.2803 701.69 95.2803 700.167C95.2803 698.578 97.0308 697.625 99.8066 697.618C102.583 697.625 104.333 698.578 104.333 700.167C104.333 701.683 102.788 702.606 100.29 702.708V704.166H105.71ZM95.4854 709.835V706.085H96.4229V709.059H104.406V709.835H95.4854ZM96.2324 700.167C96.2178 701.28 97.6387 701.954 99.8066 701.954C101.982 701.954 103.396 701.28 103.396 700.167C103.396 699.09 101.982 698.387 99.8066 698.395C97.6387 698.387 96.2178 699.09 96.2324 700.167ZM116.843 697.223V702.438H119.069V703.243H116.843V710.157H115.92V697.223H116.843ZM107.395 699.244V698.453H113.239V702.965H108.347V706.202H108.435C110.969 706.202 112.661 706.114 114.675 705.733L114.777 706.51C112.719 706.891 111.005 706.986 108.435 706.993H107.424V702.174H112.316V699.244H107.395ZM130.48 697.223V706.729H129.558V697.223H130.48ZM120.197 701.295C120.19 699.449 121.618 698.16 123.537 698.16C125.449 698.16 126.87 699.449 126.877 701.295C126.87 703.163 125.449 704.452 123.537 704.444C121.618 704.452 120.19 703.163 120.197 701.295ZM121.091 701.295C121.091 702.65 122.138 703.631 123.537 703.624C124.921 703.631 125.976 702.65 125.983 701.295C125.976 699.962 124.921 698.973 123.537 698.966C122.138 698.973 121.091 699.962 121.091 701.295ZM122.233 709.835V705.748H123.156V709.059H130.905V709.835H122.233ZM136.838 697.896L133.425 710.597H132.502L135.915 697.896H136.838ZM148.308 697.223V706.715H147.385V701.646H144.543V700.87H147.385V697.223H148.308ZM137.746 704.225C139.592 703.573 141.101 701.852 141.101 699.933V699.127H138.068V698.336H145.012V699.127H142.023V699.933C142.023 701.654 143.444 703.28 145.275 703.917L144.792 704.664C143.334 704.129 142.133 703.001 141.584 701.61C141.035 703.17 139.76 704.4 138.229 704.986L137.746 704.225ZM140.104 709.835V705.851H141.027V709.059H148.688V709.835H140.104ZM154.855 701.339C154.848 703.434 156.503 705.719 158.283 706.583L157.741 707.315C156.306 706.59 154.995 705.008 154.416 703.207C153.823 705.147 152.424 706.883 151.003 707.638L150.432 706.905C152.189 706.026 153.955 703.558 153.962 701.339V699.361H150.886V698.57H157.873V699.361H154.855V701.339ZM159.646 710.143V697.223H160.568V702.54H162.795V703.331H160.568V710.143H159.646ZM167.336 699.962C167.329 701.581 168.435 703.133 170.09 703.771L169.621 704.488C168.325 703.946 167.373 702.914 166.918 701.661C166.472 703.016 165.52 704.144 164.201 704.723L163.732 704.034C165.373 703.331 166.442 701.69 166.457 699.962V699.786H163.952V699.01H166.457V697.384H167.336V699.01H169.782V699.786H167.336V699.962ZM165.871 706.642V705.88H174.514V710.143H173.62V706.642H165.871ZM170.822 705.06V697.472H171.73V700.753H173.635V697.223H174.514V705.147H173.635V701.529H171.73V705.06H170.822ZM180.563 697.896L177.15 710.597H176.228L179.641 697.896H180.563ZM193.161 703.99V704.767H181.384V703.99H186.818V702.291H182.966V697.516H183.889V699.112H190.686V697.516H191.608V702.291H187.741V703.99H193.161ZM182.688 706.935V706.158H191.682V710.143H190.759V706.935H182.688ZM183.889 701.529H190.686V699.845H183.889V701.529ZM204.411 697.223V700.592H206.403V701.383H204.411V704.708H203.488V697.223H204.411ZM194.392 699.391V698.629H197.79V697.091H198.698V698.629H202.097V699.391H194.392ZM195.153 702.335C195.146 700.958 196.376 700.079 198.244 700.079C200.09 700.079 201.313 700.958 201.32 702.335C201.313 703.719 200.09 704.605 198.244 704.591C196.376 704.605 195.146 703.719 195.153 702.335ZM196.032 702.335C196.025 703.25 196.911 703.873 198.244 703.873C199.555 703.873 200.441 703.25 200.456 702.335C200.441 701.427 199.555 700.797 198.244 700.812C196.911 700.797 196.025 701.427 196.032 702.335ZM196.325 709.952V705.294H197.233V706.803H203.488V705.294H204.411V709.952H196.325ZM197.233 709.19H203.488V707.55H197.233V709.19ZM217.932 697.223V710.143H217.023V697.223H217.932ZM207.517 706.876C211.062 705.191 212.958 702.547 213.193 699.405H208.088V698.644H214.123C214.116 702.291 212.27 705.587 208.029 707.638L207.517 706.876ZM232.082 704.386V705.177H220.261V704.386H225.71V702.877H221.813V699.859H229.621V698.336H221.77V697.574H230.544V700.577H222.722V702.115H230.822V702.877H226.618V704.386H232.082ZM221.579 707.022V706.246H230.617V709.996H229.68V707.022H221.579ZM245.017 702.789V703.551H239.582V704.972H243.464V707.726H235.627V709.22H243.874V709.981H234.733V707.022H242.57V705.704H234.689V704.972H238.659V703.551H233.239V702.789H245.017ZM234.792 701.559V697.662H243.479V701.559H234.792ZM235.7 700.797H242.556V698.424H235.7V700.797ZM250.217 697.896L246.804 710.597H245.881L249.294 697.896H250.217ZM261.687 697.223V706.715H260.764V701.646H257.922V700.87H260.764V697.223H261.687ZM251.125 704.225C252.971 703.573 254.479 701.852 254.479 699.933V699.127H251.447V698.336H258.391V699.127H255.402V699.933C255.402 701.654 256.823 703.28 258.654 703.917L258.171 704.664C256.713 704.129 255.512 703.001 254.963 701.61C254.414 703.17 253.139 704.4 251.608 704.986L251.125 704.225ZM253.483 709.835V705.851H254.406V709.059H262.067V709.835H253.483ZM268.234 701.339C268.227 703.434 269.882 705.719 271.662 706.583L271.12 707.315C269.685 706.59 268.374 705.008 267.795 703.207C267.202 705.147 265.803 706.883 264.382 707.638L263.811 706.905C265.568 706.026 267.333 703.558 267.341 701.339V699.361H264.265V698.57H271.252V699.361H268.234V701.339ZM273.024 710.143V697.223H273.947V702.54H276.174V703.331H273.947V710.143H273.024ZM281.198 701.339C281.191 703.434 282.846 705.719 284.626 706.583L284.084 707.315C282.648 706.59 281.337 705.008 280.759 703.207C280.166 705.147 278.767 706.883 277.346 707.638L276.774 706.905C278.532 706.026 280.297 703.558 280.305 701.339V699.361H277.229V698.57H284.216V699.361H281.198V701.339ZM285.988 710.143V697.223H286.911V702.54H289.138V703.331H286.911V710.143H285.988ZM301.765 707.696V708.487H289.929V707.696H293.356V705.089H291.452V701.222H299.318V698.995H291.408V698.219H300.227V701.998H292.36V704.312H300.534V705.089H298.439V707.696H301.765ZM294.265 707.696H297.531V705.089H294.265V707.696ZM303.786 704.532C303.786 702.027 304.445 699.823 305.646 697.896H306.54C305.537 699.486 304.819 702.137 304.812 704.532C304.819 706.935 305.544 709.579 306.54 711.168H305.646C304.445 709.234 303.786 707.03 303.786 704.532ZM309.499 698.395V709H308.459V698.395H309.499ZM311.828 709V701.046H312.795V702.276H312.883C313.205 701.441 313.981 700.943 315.021 700.943C316.113 700.943 316.816 701.478 317.175 702.379H317.233C317.6 701.5 318.442 700.943 319.592 700.943C321.064 700.943 322.009 701.881 322.009 703.668V709H320.998V703.683C321.005 702.445 320.31 701.844 319.284 701.852C318.09 701.844 317.424 702.665 317.424 703.785V709H316.413V703.595C316.413 702.547 315.783 701.844 314.729 701.852C313.652 701.844 312.832 702.708 312.839 703.932V709H311.828ZM323.767 706.773C323.759 705.155 325.07 704.547 326.696 704.415C327.231 704.386 328.513 704.298 328.894 704.283V703.536C328.901 702.467 328.212 701.815 326.96 701.822C325.92 701.815 325.217 702.298 325.026 703.023H323.986C324.155 701.764 325.363 700.936 327.019 700.929C328.205 700.936 329.89 701.441 329.89 703.624V709H328.894V707.77H328.835C328.513 708.451 327.722 709.183 326.389 709.176C324.938 709.183 323.759 708.304 323.767 706.773ZM324.763 706.817C324.763 707.755 325.517 708.282 326.535 708.282C327.993 708.282 328.901 707.235 328.894 705.968V705.111C328.498 705.147 327.238 705.243 326.843 705.265C325.437 705.36 324.763 705.902 324.763 706.817ZM335.119 712.149C333.369 712.149 332.08 711.395 331.896 709.996H332.951C333.134 710.853 333.977 711.271 335.119 711.271C336.569 711.271 337.441 710.597 337.448 709.146V707.389H337.36C337.045 708.077 336.372 708.912 334.929 708.912C333.024 708.912 331.64 707.403 331.647 704.957C331.64 702.525 332.98 700.936 334.943 700.929C336.416 700.936 337.053 701.844 337.375 702.525H337.463V701.046H338.444V709.205C338.437 711.227 337.038 712.149 335.119 712.149ZM332.658 704.986C332.651 706.773 333.508 708.011 335.061 708.019C336.577 708.011 337.463 706.869 337.463 704.986C337.463 703.148 336.599 701.837 335.061 701.837C333.493 701.837 332.651 703.221 332.658 704.986ZM343.85 709.161C341.601 709.168 340.195 707.491 340.202 705.074C340.195 702.657 341.63 700.936 343.703 700.929C345.432 700.936 347.094 702.152 347.102 704.854V705.323H341.198C341.242 707.125 342.268 708.268 343.85 708.268C344.941 708.268 345.585 707.704 345.871 707.198H346.94C346.582 708.297 345.454 709.168 343.85 709.161ZM341.206 704.459H346.076C346.076 702.972 345.109 701.83 343.718 701.837C342.282 701.83 341.293 703.031 341.206 704.459ZM351.174 704.532C351.174 707.037 350.515 709.242 349.313 711.168H348.42C349.423 709.579 350.141 706.927 350.148 704.532C350.141 702.13 349.416 699.486 348.42 697.896H349.313C350.515 699.83 351.174 702.035 351.174 704.532Z" fill="black"/>
<rect x="15" y="730" width="45" height="28" rx="2" fill="white"/>
<rect x="15" y="730" width="45" height="28" rx="2" stroke="#004064" stroke-width="0.4"/>
<path d="M26.0156 749V739.809H27.1582V747.984H31.4238V749H26.0156ZM40.3486 744.404C40.355 747.312 38.6411 749.127 36.2861 749.127C33.9248 749.127 32.2173 747.312 32.2236 744.404C32.2173 741.497 33.9248 739.682 36.2861 739.682C38.6411 739.682 40.355 741.497 40.3486 744.404ZM33.3281 744.404C33.3345 746.772 34.623 748.054 36.2861 748.061C37.9492 748.054 39.2378 746.772 39.2441 744.404C39.2378 742.03 37.9492 740.748 36.2861 740.748C34.623 740.748 33.3345 742.03 33.3281 744.404ZM44.8809 749H42.0244V739.809H44.9951C47.6802 739.809 49.2607 741.529 49.2607 744.392C49.2607 747.261 47.6802 749 44.8809 749ZM43.167 747.984H44.8047C47.0581 747.984 48.1436 746.62 48.1436 744.392C48.1436 742.17 47.0581 740.824 44.9189 740.824H43.167V747.984Z" fill="#004064"/>
<rect x="68" y="730" width="68" height="28" rx="2" fill="white"/>
<rect x="68" y="730" width="68" height="28" rx="2" stroke="#004064" stroke-width="0.4"/>
<path d="M84.0303 742.119C83.9351 741.218 83.0972 740.697 81.999 740.697C80.7803 740.697 79.9868 741.332 79.9805 742.208C79.9868 743.173 81.0596 743.535 81.7578 743.706L82.6719 743.96C83.6558 744.214 85.2744 744.779 85.2744 746.499C85.2744 747.997 84.0684 749.159 81.9355 749.165C79.9551 749.159 78.73 748.137 78.6221 746.613H79.79C79.8853 747.642 80.8438 748.13 81.9355 748.124C83.2051 748.13 84.1572 747.477 84.1572 746.474C84.1572 745.579 83.3066 745.236 82.3418 744.963L81.2119 744.658C79.771 744.239 78.8696 743.503 78.876 742.259C78.8696 740.704 80.2534 739.682 82.0371 739.682C83.8208 739.682 85.103 740.723 85.1475 742.119H84.0303ZM86.9121 749V739.809H90.0352C92.187 739.809 93.1709 741.091 93.1709 742.729C93.1709 744.36 92.187 745.661 90.0479 745.661H88.0547V749H86.9121ZM88.0547 744.646H89.9971C91.4634 744.646 92.0347 743.82 92.041 742.729C92.0347 741.63 91.4634 740.824 89.9844 740.824H88.0547V744.646ZM94.2373 749H93.0439L96.4082 739.809H97.6143L100.979 749H99.7725L98.8521 746.41H95.1577L94.2373 749ZM95.5068 745.407H98.5029L97.043 741.294H96.9668L95.5068 745.407ZM102.223 749V739.809H105.346C107.498 739.809 108.481 741.002 108.481 742.64C108.481 743.858 107.936 744.811 106.768 745.217L108.837 749H107.504L105.581 745.426C105.511 745.433 105.435 745.433 105.358 745.433H103.365V749H102.223ZM103.365 744.392H105.308C106.774 744.392 107.345 743.731 107.352 742.64C107.345 741.542 106.774 740.824 105.295 740.824H103.365V744.392ZM113.458 746.118H114.702L115.673 747.388C116.359 746.785 116.791 745.775 116.797 744.404C116.791 742.03 115.502 740.748 113.839 740.748C112.176 740.748 110.887 742.03 110.881 744.404C110.887 746.772 112.176 748.054 113.839 748.061C114.182 748.061 114.512 748.003 114.816 747.896L113.458 746.118ZM109.776 744.404C109.77 741.497 111.478 739.682 113.839 739.682C116.194 739.682 117.908 741.497 117.901 744.404C117.908 746.125 117.311 747.458 116.333 748.264L117.533 749.863H116.289L115.489 748.791C114.994 749.013 114.436 749.127 113.839 749.127C111.478 749.127 109.77 747.312 109.776 744.404ZM119.577 749V739.809H120.72V747.984H124.985V749H119.577Z" fill="#004064"/>
<rect x="144" y="730" width="58" height="28" rx="2" fill="white"/>
<rect x="144" y="730" width="58" height="28" rx="2" stroke="#004064" stroke-width="0.4"/>
<path d="M155.016 739.809H156.387L159.484 747.375H159.599L162.696 739.809H164.067V749H162.988V742.056H162.899L160.043 749H159.027L156.171 742.056H156.095V749H155.016V739.809ZM173.868 744.404C173.875 747.312 172.161 749.127 169.806 749.127C167.444 749.127 165.737 747.312 165.743 744.404C165.737 741.497 167.444 739.682 169.806 739.682C172.161 739.682 173.875 741.497 173.868 744.404ZM166.848 744.404C166.854 746.772 168.143 748.054 169.806 748.061C171.469 748.054 172.757 746.772 172.764 744.404C172.757 742.03 171.469 740.748 169.806 740.748C168.143 740.748 166.854 742.03 166.848 744.404ZM178.4 749H175.544V739.809H178.515C181.2 739.809 182.78 741.529 182.78 744.392C182.78 747.261 181.2 749 178.4 749ZM176.687 747.984H178.324C180.578 747.984 181.663 746.62 181.663 744.392C181.663 742.17 180.578 740.824 178.438 740.824H176.687V747.984ZM189.471 742.119C189.375 741.218 188.538 740.697 187.439 740.697C186.221 740.697 185.427 741.332 185.421 742.208C185.427 743.173 186.5 743.535 187.198 743.706L188.112 743.96C189.096 744.214 190.715 744.779 190.715 746.499C190.715 747.997 189.509 749.159 187.376 749.165C185.396 749.159 184.17 748.137 184.062 746.613H185.23C185.326 747.642 186.284 748.13 187.376 748.124C188.646 748.13 189.598 747.477 189.598 746.474C189.598 745.579 188.747 745.236 187.782 744.963L186.652 744.658C185.211 744.239 184.31 743.503 184.316 742.259C184.31 740.704 185.694 739.682 187.478 739.682C189.261 739.682 190.543 740.723 190.588 742.119H189.471Z" fill="#004064"/>
<line x1="5" y1="777.9" x2="370" y2="777.9" stroke="#666666" stroke-width="0.2"/>
<rect x="15" y="798" width="50" height="20" rx="2" fill="#004064"/>
<path d="M34.0435 803.331V810.335H33.1948V806.672H31.229V805.974H33.1948V803.331H34.0435ZM26.1694 808.423C27.5767 807.929 28.5972 806.667 28.5972 805.297V804.803H26.438V804.104H31.5835V804.803H29.4458V805.297C29.4458 806.532 30.4019 807.73 31.7983 808.208L31.3579 808.885C30.2837 808.493 29.4512 807.692 29.0376 806.704C28.624 807.811 27.7432 808.686 26.6099 809.11L26.1694 808.423ZM27.9097 812.666V809.701H28.7583V811.957H34.312V812.666H27.9097ZM38.8667 806.253C38.856 807.784 39.9624 809.47 41.3481 810.131L40.8647 810.797C39.7905 810.271 38.8828 809.143 38.4531 807.848C38.0127 809.25 37.0566 810.485 35.9878 811.033L35.4722 810.367C36.8472 809.696 38.0288 807.88 38.0396 806.253V805.007H35.8159V804.309H41.0151V805.007H38.8667V806.253ZM42.186 812.87V803.32H43.0239V807.188H44.6245V807.907H43.0239V812.87H42.186ZM47.9653 805.394C47.9653 806.521 48.7173 807.623 49.9312 808.068L49.5229 808.724C48.5938 808.353 47.9277 807.639 47.5894 806.779C47.2563 807.714 46.585 808.487 45.6343 808.896L45.2153 808.262C46.4346 807.762 47.1597 806.607 47.1704 805.394V805.275H45.4087V804.588H47.1704V803.438H47.9653V804.588H49.6948V805.275H47.9653V805.394ZM46.8159 810.378V809.69H53.2505V812.87H52.4233V810.378H46.8159ZM50.3823 809.132V803.503H51.1987V805.888H52.4448V803.331H53.2505V809.175H52.4448V806.586H51.1987V809.132H50.3823Z" fill="white"/>
<path d="M28.4893 835.395V840.791H23.9541V842.619H30.3174V843.973H15.9561V842.619H22.3018V840.791H17.7842V835.395H28.4893ZM17.5557 846.785V845.467H28.5596V850.494H26.8721V846.785H17.5557ZM19.4189 839.455H26.8369V836.713H19.4189V839.455ZM40.46 836.168V837.521H38.9658V842.461C39.7129 842.408 40.4424 842.338 41.1455 842.25L41.251 843.498C38.0781 843.999 34.4043 844.069 31.7061 844.078L31.5127 842.707C32.1191 842.707 32.7695 842.698 33.4463 842.689V837.521H31.9521V836.168H40.46ZM33.9033 850.16V845.238H35.5732V848.807H44.5557V850.16H33.9033ZM35.0635 842.654C35.8105 842.628 36.5664 842.602 37.3311 842.566V837.521H35.0635V842.654ZM42.2178 846.346V834.762H43.8877V839.42H46.1729V840.826H43.8877V846.346H42.2178ZM61.4834 847.137V848.525H47.0693V847.137H53.415V843.498H48.7217V836.01H59.7607V843.498H55.0674V847.137H61.4834ZM50.3389 842.18H58.126V837.346H50.3389V842.18ZM75.6865 834.762V843.727H74.0166V834.762H75.6865ZM62.9424 839.279C62.9512 837.056 64.7266 835.544 67.1436 835.553C69.5518 835.544 71.3271 837.056 71.3271 839.279C71.3271 841.441 69.5518 842.971 67.1436 842.971C64.7266 842.971 62.9512 841.441 62.9424 839.279ZM64.5771 839.279C64.5684 840.633 65.6494 841.564 67.1436 841.564C68.6201 841.564 69.6924 840.633 69.6924 839.279C69.6924 837.882 68.6201 836.95 67.1436 836.959C65.6494 836.95 64.5684 837.882 64.5771 839.279ZM65.333 850.301V844.518H75.6865V850.301H65.333ZM66.9854 848.947H74.0518V845.854H66.9854V848.947ZM88.7646 842.812V844.43H83.1221V842.812H88.7646ZM109.577 840.932V842.303H107.134V850.477H105.464V834.744H107.134V840.932H109.577ZM95.4619 846.521V836.273H97.1143V845.133C99.3115 845.124 101.605 844.939 104.11 844.43L104.304 845.836C101.605 846.372 99.127 846.53 96.7627 846.521H95.4619ZM124.817 843.779V845.133H118.384V850.477H116.749V845.133H110.403V843.779H124.817ZM112.214 841.775V835.588H123.007V841.775H112.214ZM113.849 840.475H121.337V836.924H113.849V840.475ZM138.599 840.545V841.863H127.911V835.641H138.405V836.994H129.599V840.545H138.599ZM125.96 845.133V843.779H140.374V845.133H133.94V850.459H132.306V845.133H125.96ZM154.665 834.762V846.398H152.995V840.457H149.55V843.779H142.29V835.799H143.96V838.471H147.897V835.799H149.55V839.104H152.995V834.762H154.665ZM143.96 842.426H147.897V839.754H143.96V842.426ZM144.382 850.16V845.256H146.069V848.807H155.017V850.16H144.382ZM170.872 834.744V850.494H169.272V842.443H167.761V849.721H166.214V835.043H167.761V841.072H169.272V834.744H170.872ZM156.739 845.643C158.567 844.201 158.857 841.397 158.866 839.367V837.943H157.302V836.607H161.187V837.943H160.325V839.367C160.308 840.765 160.378 843.076 161.424 844.79C162.443 843.146 162.496 840.932 162.505 839.367V837.943H161.644V836.607H165.388V837.943H163.964V839.367C163.946 841.45 164.263 844.21 166.091 845.643L165.142 846.803C164.184 846.029 163.595 844.852 163.261 843.542C162.953 844.887 162.408 846.144 161.415 846.961C160.422 846.126 159.868 844.852 159.561 843.498C159.227 844.816 158.655 846.021 157.706 846.803L156.739 845.643ZM185.778 834.762V846.293H184.108V840.369H181.103V839.016H184.108V834.762H185.778ZM172.665 843.006C175.082 842.188 176.594 840.114 176.585 837.943V837.328H173.175V835.957H181.665V837.328H178.29V837.943C178.281 839.903 179.705 841.881 182.087 842.672L181.226 844.008C179.459 843.393 178.149 842.127 177.464 840.562C176.778 842.303 175.398 843.691 173.526 844.359L172.665 843.006ZM175.548 850.16V845.256H177.218V848.807H186.2V850.16H175.548Z" fill="black"/>
<rect x="343" y="833.5" width="17" height="17" rx="2" fill="white" stroke="#666666"/>
<rect x="15" y="459" width="345" height="67" fill="#F9F7F7"/>
<rect x="15" y="459" width="345" height="67" stroke="#8F8F8F" stroke-width="0.4"/>
<path d="M35.1182 473.742V485.028H34.1533V473.742H35.1182ZM25.9014 482.312V475.139H30.1543V475.964H26.8662V481.474C28.4976 481.461 29.5259 481.404 30.7383 481.131L30.8398 481.981C29.5322 482.248 28.4277 482.305 26.6123 482.312H25.9014ZM29.3926 478.896V478.059H31.8555V474.021H32.8076V484.444H31.8555V478.896H29.3926ZM45.998 473.742V485.054H44.9951V473.742H45.998ZM37.1113 478.554C37.1177 476.154 38.311 474.625 39.9932 474.618C41.6689 474.625 42.8813 476.154 42.875 478.554C42.8813 480.959 41.6689 482.483 39.9932 482.477C38.311 482.483 37.1177 480.959 37.1113 478.554ZM38.0762 478.554C38.0762 480.388 38.8633 481.594 39.9932 481.588C41.1294 481.594 41.9102 480.388 41.9102 478.554C41.9102 476.719 41.1294 475.513 39.9932 475.507C38.8633 475.513 38.0762 476.719 38.0762 478.554ZM57.2842 473.742V485.054H56.2939V478.833H53.9072V478.008H56.2939V473.742H57.2842ZM48.4482 482.324V474.783H53.7168V475.608H49.4512V477.957H53.2217V478.77H49.4512V481.499C51.5205 481.493 52.8535 481.436 54.4023 481.156L54.5166 481.981C52.8726 482.248 51.4951 482.324 49.3115 482.324H48.4482ZM72.7471 480.179V481.004H70.0176V485.028H69.0146V481.004H66.1201V485.028H65.0918V481.004H62.4131V480.179H72.7471ZM63.5811 476.662C63.5874 475.158 65.1807 474.206 67.5547 474.199C69.9224 474.206 71.5283 475.158 71.5283 476.662C71.5283 478.167 69.9224 479.106 67.5547 479.1C65.1807 479.106 63.5874 478.167 63.5811 476.662ZM64.6094 476.662C64.5967 477.659 65.7964 478.3 67.5547 478.3C69.313 478.3 70.5063 477.659 70.5127 476.662C70.5063 475.659 69.313 475.012 67.5547 475.012C65.7964 475.012 64.5967 475.659 64.6094 476.662ZM80.0596 475.012V475.824H73.6738V475.012H76.416V473.653H77.4062V475.012H80.0596ZM74.3467 478.49C74.334 477.233 75.375 476.402 76.8984 476.408C78.4092 476.402 79.4692 477.233 79.4756 478.49C79.4692 479.753 78.4092 480.579 76.8984 480.585C75.375 480.579 74.334 479.753 74.3467 478.49ZM75.2734 478.49C75.2671 479.284 75.9146 479.817 76.8984 479.811C77.8696 479.817 78.5361 479.284 78.5488 478.49C78.5361 477.697 77.8696 477.17 76.8984 477.157C75.9146 477.17 75.2671 477.697 75.2734 478.49ZM75.502 483.086C75.502 481.854 76.9302 481.156 79.2979 481.156C81.6528 481.156 83.0811 481.854 83.0811 483.086C83.0811 484.298 81.6528 485.003 79.2979 485.003C76.9302 485.003 75.502 484.298 75.502 483.086ZM76.5303 483.086C76.5366 483.803 77.584 484.235 79.2979 484.229C80.9863 484.235 82.0273 483.803 82.0273 483.086C82.0273 482.35 80.9863 481.937 79.2979 481.931C77.584 481.937 76.5366 482.35 76.5303 483.086ZM80.0469 479.48V478.655H82.0146V477.284H80.0596V476.459H82.0146V473.742H83.0176V481.042H82.0146V479.48H80.0469ZM94.6846 480.788L88.8828 483.721V482.54L93.2754 480.452V480.375L88.8828 478.262V477.081L94.6846 480.026V480.788ZM108.688 479.036V479.849H105.196V482.769H109.906V483.606H99.5723V482.769H104.219V479.849H100.893V474.669H108.573V475.481H101.896V479.036H108.688ZM114.781 476.776C114.775 478.82 116.089 480.877 117.727 481.626L117.13 482.438C115.848 481.778 114.788 480.433 114.286 478.827C113.785 480.515 112.725 481.962 111.442 482.642L110.795 481.842C112.452 481.029 113.759 478.858 113.766 476.776V474.72H114.781V476.776ZM116.495 478.414V477.602H119.174V473.742H120.164V485.054H119.174V478.414H116.495ZM128.302 474.618V475.215C128.295 475.958 128.295 477.081 128.01 478.554L127.007 478.478C127.28 477.132 127.305 476.173 127.318 475.456H122.678V474.618H128.302ZM121.979 479.607C122.709 479.607 123.535 479.601 124.404 479.576V477.119H125.395V479.544C126.645 479.493 127.94 479.404 129.114 479.239L129.178 479.976C126.81 480.382 124.093 480.426 122.081 480.433L121.979 479.607ZM123.719 484.787V481.474H124.722V483.949H131.26V484.787H123.719ZM129.876 482.235V473.742H130.892V477.424H132.542V478.274H130.892V482.235H129.876Z" fill="#3B3B3B"/>
<rect x="137" y="472" width="14" height="14" rx="7" fill="#424242"/>
<path d="M147 476.604L146.396 476L144 478.396L141.604 476L141 476.604L143.396 479L141 481.396L141.604 482L144 479.604L146.396 482L147 481.396L144.604 479L147 476.604Z" fill="white"/>
<path d="M31.2842 501.479C31.2778 504.31 29.2529 506.341 26.0029 507.268L25.584 506.48C28.2817 505.719 30.0083 504.221 30.2241 502.304H26.168V501.479H31.2842ZM27.4883 511.876V507.674H34.8135V511.876H27.4883ZM28.4531 511.063H33.8232V508.474H28.4531V511.063ZM31.3096 504.5V503.662H33.8105V500.755H34.8135V507.191H33.8105V504.5H31.3096ZM40.0566 502.951C40.063 504.24 40.9199 505.535 42.3672 506.1L41.834 506.874C40.7612 506.436 39.9868 505.604 39.5869 504.608C39.168 505.7 38.3555 506.665 37.251 507.153L36.7051 506.379C38.1904 505.719 39.0981 504.24 39.1045 502.951V501.44H40.0566V502.951ZM38.6729 509.02V508.194H46.2773V512.028H45.2998V509.02H38.6729ZM42.8877 507.509V500.958H43.8271V503.7H45.3252V500.755H46.2773V507.572H45.3252V504.538H43.8271V507.509H42.8877ZM58.249 506.722V507.534H53.6533V509.743H52.6631V507.534H47.915V506.722H58.249ZM49.2354 511.787V508.702H50.2256V510.949H57.0938V511.787H49.2354ZM49.2988 505.617V501.11H50.2891V502.558H55.875V501.11H56.8652V505.617H49.2988ZM50.2891 504.805H55.875V503.319H50.2891V504.805ZM69.4844 507.483V508.283H66.7676V512.028H65.7773V508.283H62.8574V512.028H61.8545V508.283H59.1504V507.483H69.4844ZM60.3945 502.012V501.187H68.2275V504.081H61.4229V505.49H68.4688V506.315H60.4199V503.307H67.2119V502.012H60.3945ZM80.1865 507.788L74.3848 510.721V509.54L78.7773 507.452V507.375L74.3848 505.262V504.081L80.1865 507.026V507.788ZM94.4307 500.755V509.032H93.4277V504.703H91.1045V503.878H93.4277V500.755H94.4307ZM85.125 506.772C86.7881 506.188 87.9941 504.697 87.9941 503.078V502.494H85.4424V501.669H91.5234V502.494H88.9971V503.078C88.9971 504.538 90.127 505.954 91.7773 506.519L91.2568 507.318C89.9873 506.855 89.0034 505.909 88.5146 504.741C88.0259 506.049 86.9849 507.083 85.6455 507.585L85.125 506.772ZM87.1816 511.787V508.283H88.1846V510.949H94.748V511.787H87.1816ZM100.131 504.208C100.118 506.017 101.426 508.01 103.063 508.791L102.492 509.578C101.223 508.956 100.15 507.623 99.6421 506.093C99.1216 507.75 97.9917 509.21 96.7285 509.857L96.1191 509.07C97.7441 508.277 99.1406 506.131 99.1533 504.208V502.735H96.5254V501.91H102.67V502.735H100.131V504.208ZM104.054 512.028V500.742H105.044V505.312H106.936V506.163H105.044V512.028H104.054ZM110.884 503.192C110.884 504.525 111.772 505.827 113.207 506.354L112.725 507.128C111.626 506.69 110.839 505.846 110.439 504.83C110.046 505.935 109.252 506.849 108.129 507.331L107.634 506.582C109.075 505.992 109.932 504.627 109.944 503.192V503.053H107.862V502.24H109.944V500.882H110.884V502.24H112.928V503.053H110.884V503.192ZM109.525 509.083V508.271H117.13V512.028H116.152V509.083H109.525ZM113.74 507.61V500.958H114.705V503.776H116.178V500.755H117.13V507.661H116.178V504.602H114.705V507.61H113.74Z" fill="#3B3B3B"/>
<rect x="123" y="499" width="14" height="14" rx="7" fill="#424242"/>
<path d="M133 503.604L132.396 503L130 505.396L127.604 503L127 503.604L129.396 506L127 508.396L127.604 509L130 506.604L132.396 509L133 508.396L130.604 506L133 503.604Z" fill="white"/>
<rect x="282" y="479.5" width="68" height="26" rx="4" fill="#8F8F8F"/>
<path d="M295.5 488.3C298.539 488.3 301 490.806 301 493.9C301 496.994 298.539 499.5 295.5 499.5C292.461 499.5 290 496.994 290 493.9H291.375C291.375 496.217 293.225 498.1 295.5 498.1C297.775 498.1 299.625 496.217 299.625 493.9C299.625 491.583 297.776 489.7 295.5 489.7V492.5L292.062 489L295.5 485.5V488.3Z" fill="white"/>
<path d="M317.58 496.256V496.994H306.533V496.256H311.605V493.357H312.453V496.256H317.58ZM307.23 493.111C309.37 492.729 311.599 491.348 311.605 489.297V489.242H307.586V488.504H311.605V486.795H312.453V488.504H316.486V489.242H312.467V489.297C312.467 491.348 314.695 492.729 316.828 493.111L316.486 493.781C314.647 493.426 312.768 492.435 312.036 490.808C311.305 492.435 309.425 493.426 307.586 493.781L307.23 493.111ZM328.545 486.508V498.566H327.697V486.508H328.545ZM318.824 495.518C322.133 493.945 323.903 491.478 324.122 488.545H319.357V487.834H324.99C324.983 491.238 323.261 494.314 319.303 496.229L318.824 495.518ZM339.988 486.508V491.717H342.039V492.455H339.988V498.566H339.141V486.508H339.988ZM330.582 495.408C331.601 495.408 332.79 495.401 334.027 495.36V493.938C332.578 493.802 331.628 492.975 331.635 491.744C331.628 490.384 332.763 489.509 334.451 489.516C336.126 489.509 337.274 490.384 337.281 491.744C337.274 492.968 336.324 493.795 334.889 493.938V495.326C336.064 495.271 337.247 495.176 338.348 495.012L338.416 495.682C335.764 496.126 332.879 496.16 330.746 496.16L330.582 495.408ZM330.787 488.736V488.012H334.027V486.508H334.889V488.012H338.102V488.736H330.787ZM332.441 491.744C332.441 492.646 333.241 493.262 334.451 493.248C335.647 493.262 336.454 492.646 336.461 491.744C336.454 490.835 335.647 490.199 334.451 490.199C333.241 490.199 332.441 490.835 332.441 491.744Z" fill="white"/>
</g>
<defs>
<clipPath id="clip0_4001_1010">
<rect width="375" height="858" fill="white"/>
</clipPath>
<clipPath id="clip1_4001_1010">
<rect width="145" height="36.563" fill="white" transform="translate(20 16.7185)"/>
</clipPath>
</defs>
</svg>
