<svg width="360" height="760" viewBox="0 0 360 760" fill="none" xmlns="http://www.w3.org/2000/svg">
<g clip-path="url(#clip0_813_1373)">
<rect width="360" height="760" fill="white"/>
<g opacity="0.35">
<path d="M345.005 7.5H328.339C327.142 7.5 326.172 8.4702 326.172 9.667V15.666C326.172 16.8628 327.142 17.833 328.339 17.833H345.005C346.202 17.833 347.172 16.8628 347.172 15.666V9.667C347.172 8.4702 346.202 7.5 345.005 7.5Z" stroke="black" stroke-miterlimit="10"/>
</g>
<path opacity="0.4" d="M348.672 10.667V14.667C349.065 14.5013 349.401 14.2231 349.638 13.8674C349.874 13.5116 350 13.094 350 12.667C350 12.2399 349.874 11.8224 349.638 11.4666C349.401 11.1109 349.065 10.8327 348.672 10.667Z" fill="black"/>
<path d="M344.339 9H329.005C328.269 9 327.672 9.5968 327.672 10.333V15C327.672 15.7362 328.269 16.333 329.005 16.333H344.339C345.075 16.333 345.672 15.7362 345.672 15V10.333C345.672 9.5968 345.075 9 344.339 9Z" fill="black"/>
<path d="M149.333 19.1455V18.25H154.932V15.5908C153.678 15.4951 152.71 15.1579 152.026 14.5791C151.343 13.9958 151.001 13.2324 151.001 12.2891C151.001 11.2637 151.409 10.4593 152.225 9.87598C153.045 9.28809 154.12 8.99414 155.451 8.99414C156.782 8.99414 157.853 9.28581 158.664 9.86914C159.48 10.4479 159.888 11.2546 159.888 12.2891C159.888 13.2324 159.546 13.9958 158.862 14.5791C158.179 15.1579 157.215 15.4951 155.971 15.5908V18.25H161.569V19.1455H149.333ZM152.061 12.2891C152.061 13.0319 152.373 13.6198 152.997 14.0527C153.626 14.4811 154.444 14.6953 155.451 14.6953C156.458 14.6953 157.272 14.4788 157.892 14.0459C158.516 13.613 158.828 13.0273 158.828 12.2891C158.828 11.5553 158.516 10.972 157.892 10.5391C157.272 10.1061 156.458 9.88965 155.451 9.88965C154.439 9.88965 153.621 10.1061 152.997 10.5391C152.373 10.972 152.061 11.5553 152.061 12.2891ZM173.122 17.4229V12.2891H170.039V11.373H173.122V8.04395H174.141V17.4229H173.122ZM170.49 15.4746C169.839 15.0736 169.221 14.5586 168.638 13.9297C168.059 13.2962 167.649 12.7197 167.407 12.2002C167.152 12.8063 166.712 13.4762 166.088 14.21C165.464 14.9391 164.848 15.4746 164.242 15.8164L163.504 15.1123C164.443 14.6383 165.238 13.9365 165.89 13.0068C166.546 12.0726 166.874 11.127 166.874 10.1699V9.68457H163.948V8.75488H170.736V9.68457H167.872V10.1699C167.872 11.0449 168.212 11.9268 168.891 12.8154C169.57 13.6995 170.331 14.3398 171.174 14.7363L170.49 15.4746ZM166.02 20.7998V16.4863H167.045V19.9043H174.489V20.7998H166.02ZM186.254 20H185.167V11.3115C184.957 11.5212 184.616 11.749 184.142 11.9951C183.668 12.2367 183.235 12.4053 182.843 12.501V11.3389C183.344 11.1976 183.882 10.9674 184.456 10.6484C185.03 10.3294 185.484 10.0195 185.816 9.71875H186.254V20ZM193.965 20H192.878V11.3115C192.668 11.5212 192.326 11.749 191.853 11.9951C191.379 12.2367 190.946 12.4053 190.554 12.501V11.3389C191.055 11.1976 191.593 10.9674 192.167 10.6484C192.741 10.3294 193.195 10.0195 193.527 9.71875H193.965V20ZM197.574 13.4238C197.574 13.2096 197.649 13.0296 197.8 12.8838C197.95 12.7334 198.126 12.6582 198.326 12.6582C198.527 12.6582 198.702 12.7334 198.853 12.8838C199.003 13.0296 199.078 13.2096 199.078 13.4238C199.078 13.6335 199.003 13.8135 198.853 13.9639C198.707 14.1097 198.531 14.1826 198.326 14.1826C198.121 14.1826 197.943 14.1097 197.793 13.9639C197.647 13.8135 197.574 13.6335 197.574 13.4238ZM197.574 19.3984C197.574 19.1842 197.649 19.0042 197.8 18.8584C197.95 18.708 198.126 18.6328 198.326 18.6328C198.527 18.6328 198.702 18.708 198.853 18.8584C199.003 19.0042 199.078 19.1842 199.078 19.3984C199.078 19.599 199.003 19.7767 198.853 19.9316C198.707 20.082 198.531 20.1572 198.326 20.1572C198.121 20.1572 197.943 20.0843 197.793 19.9385C197.647 19.7881 197.574 19.6081 197.574 19.3984ZM200.767 18.4277C201.459 18.9746 202.234 19.248 203.091 19.248C203.793 19.248 204.358 19.0703 204.786 18.7148C205.219 18.3594 205.436 17.8786 205.436 17.2725C205.436 15.9281 204.49 15.2559 202.599 15.2559H201.765V14.333H202.558C204.239 14.333 205.08 13.7041 205.08 12.4463C205.08 11.2842 204.44 10.7031 203.159 10.7031C202.448 10.7031 201.781 10.9469 201.156 11.4346V10.3477C201.794 9.96484 202.553 9.77344 203.433 9.77344C204.235 9.77344 204.893 9.99447 205.408 10.4365C205.928 10.8786 206.188 11.4551 206.188 12.166C206.188 13.4831 205.515 14.3376 204.171 14.7295V14.75C204.896 14.8138 205.472 15.0667 205.9 15.5088C206.333 15.9508 206.55 16.5 206.55 17.1562C206.55 18.0723 206.217 18.8037 205.552 19.3506C204.891 19.8975 204.05 20.1709 203.029 20.1709C202.09 20.1709 201.336 19.9909 200.767 19.6309V18.4277ZM208.177 15.1738C208.177 13.3965 208.466 12.0521 209.045 11.1406C209.624 10.2292 210.458 9.77344 211.547 9.77344C213.639 9.77344 214.685 11.4915 214.685 14.9277C214.685 16.623 214.393 17.9219 213.81 18.8242C213.231 19.722 212.401 20.1709 211.321 20.1709C210.3 20.1709 209.521 19.7357 208.983 18.8652C208.446 17.9902 208.177 16.7598 208.177 15.1738ZM209.284 15.1191C209.284 17.8717 210.002 19.248 211.438 19.248C212.864 19.248 213.577 17.8512 213.577 15.0576C213.577 12.1546 212.882 10.7031 211.492 10.7031C210.02 10.7031 209.284 12.1751 209.284 15.1191Z" fill="#222222"/>
<path d="M72.6667 18.0003C72.6254 18.0001 72.5846 17.9919 72.5465 17.9759C72.5084 17.9599 72.4738 17.9366 72.4447 17.9073L70.4387 15.8853C70.4079 15.8554 70.3837 15.8194 70.3675 15.7797C70.3513 15.7399 70.3436 15.6972 70.3447 15.6543C70.3452 15.6117 70.3543 15.5696 70.3715 15.5306C70.3887 15.4916 70.4136 15.4564 70.4447 15.4273C71.0651 14.903 71.851 14.6154 72.6632 14.6154C73.4754 14.6154 74.2614 14.903 74.8817 15.4273C74.9135 15.4561 74.939 15.4911 74.9568 15.5302C74.9745 15.5692 74.9841 15.6115 74.985 15.6543C74.9858 15.6972 74.9779 15.7398 74.9617 15.7795C74.9455 15.8193 74.9213 15.8552 74.8907 15.8853L72.8887 17.9073C72.8597 17.9366 72.8251 17.9599 72.787 17.9759C72.7489 17.9919 72.708 18.0001 72.6667 18.0003ZM76.1897 14.4513C76.1097 14.4512 76.0328 14.4204 75.9747 14.3653C75.0687 13.5457 73.8905 13.0918 72.6687 13.0918C71.447 13.0918 70.2688 13.5457 69.3627 14.3653C69.3047 14.4204 69.2278 14.4512 69.1477 14.4513C69.1069 14.4515 69.0664 14.4435 69.0286 14.4279C68.9908 14.4123 68.9565 14.3893 68.9277 14.3603L67.7677 13.1893C67.7371 13.1593 67.7128 13.1235 67.6962 13.084C67.6796 13.0445 67.6711 13.0021 67.6711 12.9593C67.6711 12.9164 67.6796 12.874 67.6962 12.8345C67.7128 12.7951 67.7371 12.7593 67.7677 12.7293C69.0982 11.4931 70.8471 10.806 72.6632 10.806C74.4794 10.806 76.2283 11.4931 77.5587 12.7293C77.5899 12.759 77.6148 12.7947 77.632 12.8342C77.6491 12.8737 77.6582 12.9162 77.6587 12.9593C77.6591 13.002 77.6509 13.0444 77.6346 13.0839C77.6183 13.1234 77.5942 13.1593 77.5637 13.1893L76.4087 14.3603C76.38 14.3891 76.3459 14.412 76.3083 14.4276C76.2707 14.4433 76.2304 14.4513 76.1897 14.4513ZM78.8587 11.7583C78.8188 11.7587 78.7793 11.7511 78.7424 11.7359C78.7055 11.7208 78.6719 11.6985 78.6437 11.6703C77.0306 10.1383 74.8909 9.28409 72.6662 9.28409C70.4416 9.28409 68.3018 10.1383 66.6887 11.6703C66.6602 11.6989 66.6263 11.7216 66.589 11.7371C66.5517 11.7526 66.5116 11.7606 66.4712 11.7606C66.4308 11.7606 66.3908 11.7526 66.3535 11.7371C66.3162 11.7216 66.2823 11.6989 66.2537 11.6703L65.0937 10.5003C65.0637 10.4703 65.0399 10.4347 65.0236 10.3955C65.0074 10.3563 64.999 10.3142 64.999 10.2718C64.999 10.2293 65.0074 10.1873 65.0236 10.1481C65.0399 10.1089 65.0637 10.0733 65.0937 10.0433C67.1314 8.0927 69.8434 7.00391 72.6642 7.00391C75.4851 7.00391 78.197 8.0927 80.2347 10.0433C80.2648 10.0733 80.2886 10.1089 80.3048 10.1481C80.3211 10.1873 80.3294 10.2293 80.3294 10.2718C80.3294 10.3142 80.3211 10.3563 80.3048 10.3955C80.2886 10.4347 80.2648 10.4703 80.2347 10.5003L79.0737 11.6703C79.0164 11.7267 78.9392 11.7584 78.8587 11.7583Z" fill="black"/>
<path d="M32.8271 17.6035V16.25C32.9821 16.3867 33.1667 16.5098 33.3809 16.6191C33.5996 16.7285 33.8275 16.8219 34.0645 16.8994C34.306 16.9723 34.5475 17.0293 34.7891 17.0703C35.0306 17.1113 35.2539 17.1318 35.459 17.1318C36.1654 17.1318 36.6917 17.002 37.0381 16.7422C37.389 16.4779 37.5645 16.0996 37.5645 15.6074C37.5645 15.3431 37.5052 15.113 37.3867 14.917C37.2728 14.721 37.1133 14.5433 36.9082 14.3838C36.7031 14.2197 36.4593 14.0648 36.1768 13.9189C35.8988 13.7686 35.598 13.6113 35.2744 13.4473C34.9326 13.2741 34.6136 13.0986 34.3174 12.9209C34.0212 12.7432 33.7637 12.5472 33.5449 12.333C33.3262 12.1188 33.153 11.8773 33.0254 11.6084C32.9023 11.335 32.8408 11.016 32.8408 10.6514C32.8408 10.2048 32.9388 9.81738 33.1348 9.48926C33.3307 9.15658 33.5882 8.88314 33.9072 8.66895C34.2262 8.45475 34.5885 8.29525 34.9941 8.19043C35.4043 8.08561 35.8213 8.0332 36.2451 8.0332C37.2113 8.0332 37.9154 8.14941 38.3574 8.38184V9.67383C37.7786 9.27279 37.0358 9.07227 36.1289 9.07227C35.8783 9.07227 35.6276 9.09961 35.377 9.1543C35.1263 9.20443 34.903 9.28874 34.707 9.40723C34.5111 9.52572 34.3516 9.67839 34.2285 9.86523C34.1055 10.0521 34.0439 10.2799 34.0439 10.5488C34.0439 10.7995 34.0895 11.016 34.1807 11.1982C34.2764 11.3805 34.4154 11.5469 34.5977 11.6973C34.7799 11.8477 35.001 11.9935 35.2607 12.1348C35.5251 12.276 35.8281 12.431 36.1699 12.5996C36.5208 12.7728 36.8535 12.9551 37.168 13.1465C37.4824 13.3379 37.7581 13.5498 37.9951 13.7822C38.2321 14.0146 38.4189 14.2721 38.5557 14.5547C38.6969 14.8372 38.7676 15.1608 38.7676 15.5254C38.7676 16.0085 38.6719 16.4186 38.4805 16.7559C38.2936 17.0885 38.0384 17.3597 37.7148 17.5693C37.3958 17.779 37.0267 17.9294 36.6074 18.0205C36.1882 18.1162 35.7461 18.1641 35.2812 18.1641C35.1263 18.1641 34.9349 18.1504 34.707 18.123C34.4792 18.1003 34.2467 18.0638 34.0098 18.0137C33.7728 17.9681 33.5472 17.9111 33.333 17.8428C33.1234 17.7699 32.9548 17.6901 32.8271 17.6035ZM47.5449 18H45.9453L42.1582 13.5156C42.0169 13.347 41.9303 13.2331 41.8984 13.1738H41.8711V18H40.7227V8.19727H41.8711V12.8047H41.8984C41.9622 12.7044 42.0488 12.5928 42.1582 12.4697L45.8223 8.19727H47.251L43.0469 12.9004L47.5449 18ZM54.6406 9.23633H51.8105V18H50.6621V9.23633H47.8389V8.19727H54.6406V9.23633Z" fill="#222222"/>
<path d="M26 17.667H25C24.7348 17.667 24.4804 17.5616 24.2929 17.3741C24.1054 17.1866 24 16.9322 24 16.667V8C24 7.73478 24.1054 7.48043 24.2929 7.29289C24.4804 7.10536 24.7348 7 25 7H26C26.2652 7 26.5196 7.10536 26.7071 7.29289C26.8946 7.48043 27 7.73478 27 8V16.667C27 16.9322 26.8946 17.1866 26.7071 17.3741C26.5196 17.5616 26.2652 17.667 26 17.667ZM21.333 17.667H20.333C20.0678 17.667 19.8134 17.5616 19.6259 17.3741C19.4384 17.1866 19.333 16.9322 19.333 16.667V10.334C19.333 10.0688 19.4384 9.81443 19.6259 9.62689C19.8134 9.43936 20.0678 9.334 20.333 9.334H21.333C21.5982 9.334 21.8526 9.43936 22.0401 9.62689C22.2276 9.81443 22.333 10.0688 22.333 10.334V16.667C22.333 16.932 22.2278 17.1862 22.0405 17.3738C21.8531 17.5613 21.598 17.6667 21.333 17.667ZM16.666 17.667H15.666C15.4008 17.667 15.1464 17.5616 14.9589 17.3741C14.7714 17.1866 14.666 16.9322 14.666 16.667V12.667C14.666 12.4018 14.7714 12.1474 14.9589 11.9599C15.1464 11.7724 15.4008 11.667 15.666 11.667H16.666C16.9312 11.667 17.1856 11.7724 17.3731 11.9599C17.5606 12.1474 17.666 12.4018 17.666 12.667V16.667C17.666 16.9322 17.5606 17.1866 17.3731 17.3741C17.1856 17.5616 16.9312 17.667 16.666 17.667ZM12 17.667H11C10.7348 17.667 10.4804 17.5616 10.2929 17.3741C10.1054 17.1866 10 16.9322 10 16.667V14.667C10 14.4018 10.1054 14.1474 10.2929 13.9599C10.4804 13.7724 10.7348 13.667 11 13.667H12C12.2652 13.667 12.5196 13.7724 12.7071 13.9599C12.8946 14.1474 13 14.4018 13 14.667V16.667C13 16.9322 12.8946 17.1866 12.7071 17.3741C12.5196 17.5616 12.2652 17.667 12 17.667Z" fill="black"/>
<mask id="path-10-inside-1_813_1373" fill="white">
<path d="M0 26H360V76H0V26Z"/>
</mask>
<path d="M0 26H360V76H0V26Z" fill="white"/>
<path d="M360 76V75H0V76V77H360V76Z" fill="#EEEEEE" mask="url(#path-10-inside-1_813_1373)"/>
<path d="M134 47.282V48.74C134 51.548 135.206 54.356 137.438 55.616L136.538 56.696C134.972 55.76 133.856 54.032 133.298 51.98C132.74 54.194 131.57 56.084 129.968 57.092L129.068 55.994C131.318 54.644 132.578 51.71 132.578 48.74V47.282H129.518V46.076H136.88V47.282H134ZM138.32 49.982V44.546H139.724V59.486H138.32V51.188H135.656V49.982H138.32ZM141.56 44.168H142.982V60.314H141.56V44.168ZM147.03 50.63L146.598 49.514C149.586 49.316 152.052 48.326 152.304 46.724H147.318V45.608H152.394V44.078H153.87V45.608H158.928V46.724H153.96C154.212 48.326 156.642 49.316 159.648 49.514L159.198 50.63C156.498 50.414 154.122 49.586 153.132 48.092C152.142 49.586 149.748 50.414 147.03 50.63ZM160.404 52.484H153.87V53.978H158.55V57.506H149.064V59.036H159.036V60.152H147.624V56.444H157.092V55.076H147.57V53.978H152.376V52.484H145.842V51.35H160.404V52.484ZM163.337 45.932H170.897C170.897 50.594 168.755 54.698 163.391 57.326L162.599 56.12C166.937 54.05 169.097 50.954 169.403 47.12H163.337V45.932ZM174.155 44.186H175.631V60.332H174.155V44.186ZM187.419 51.08L185.961 50.918C186.339 49.064 186.393 47.678 186.393 46.652H179.805V45.446H187.833V46.292C187.833 47.354 187.833 48.956 187.419 51.08ZM188.949 52.052L189.057 53.132C185.709 53.69 181.839 53.78 178.977 53.78L178.833 52.574C179.859 52.574 181.029 52.556 182.253 52.538V49.046H183.711V52.484C185.475 52.412 187.311 52.286 188.949 52.052ZM182.775 55.238V58.766H192.027V59.972H181.299V55.238H182.775ZM191.505 49.442H193.827V50.666H191.505V56.354H190.029V44.186H191.505V49.442ZM211.333 56.264V49.208H207.805V47.984H211.333V44.204H212.827V56.264H211.333ZM208.957 52.448L208.183 53.582C206.401 52.88 205.015 51.494 204.331 49.748C203.647 51.674 202.207 53.204 200.317 53.96L199.543 52.79C201.955 51.908 203.575 49.622 203.575 47.156V45.158H205.051V47.21C205.051 49.46 206.635 51.584 208.957 52.448ZM203.917 58.766H213.205V59.972H202.441V54.932H203.917V58.766ZM223.644 51.494L223.788 52.682C221.934 53.06 220.404 53.132 217.812 53.132H216.786V45.374H223.014V46.562H218.208V48.596H222.834V49.73H218.208V51.926C220.512 51.926 221.952 51.836 223.644 51.494ZM218.856 56.012V54.824H229.71V60.332H228.234V56.012H218.856ZM228.288 44.204H229.71V53.978H228.288V49.604H226.128V53.87H224.724V44.492H226.128V48.398H228.288V44.204Z" fill="#222222"/>
<path d="M50 26H0V76H50V26Z" fill="white"/>
<path d="M28.4854 43L20.0001 51.4853L28.4854 59.9706" fill="white"/>
<path d="M28.4854 43L20.0001 51.4853L28.4854 59.9706" stroke="#222222" stroke-width="1.5"/>
<path d="M25.2 111.712V112.752C25.2 115.216 26.128 117.712 28.144 118.88L27.184 120.08C25.824 119.28 24.928 117.856 24.416 116.176C23.904 118 22.976 119.552 21.584 120.432L20.592 119.216C22.64 117.936 23.6 115.328 23.6 112.752V111.712H21.056V110.352H27.584V111.712H25.2ZM28.656 113.856V109.056H30.208V122.528H28.656V115.2H26.528V113.856H28.656ZM31.568 108.768H33.136V123.216H31.568V108.768ZM36.6228 114.544L36.1428 113.312C38.9908 113.152 40.7668 112.352 41.0868 111.216H36.8307V109.984H41.2308V108.72H42.8788V109.984H47.2948V111.216H43.0228C43.3428 112.352 45.1348 113.152 47.9508 113.312L47.5028 114.544C44.9428 114.368 42.9588 113.664 42.0468 112.448C41.1348 113.664 39.1828 114.368 36.6228 114.544ZM48.5908 116.304H42.8788V117.424H46.9588V120.784H38.7348V121.872H47.3748V123.104H37.1028V119.648H45.3428V118.64H37.0707V117.424H41.2308V116.304H35.5508V115.072H48.5908V116.304ZM58.7975 110V111.248H50.2695V110H53.7095V108.64H55.3575V110H58.7975ZM52.6055 114.128C52.6055 114.864 53.3575 115.296 54.5255 115.296C55.7095 115.296 56.4615 114.864 56.4615 114.128C56.4615 113.376 55.7095 112.944 54.5255 112.944C53.3575 112.944 52.6055 113.376 52.6055 114.128ZM58.0295 114.128C58.0295 115.584 56.6535 116.48 54.5255 116.48C52.4135 116.48 51.0215 115.584 51.0215 114.128C51.0215 112.656 52.4135 111.744 54.5255 111.744C56.6535 111.744 58.0295 112.656 58.0295 114.128ZM53.8535 120.736V121.872H62.0135V123.104H52.2375V119.584H59.9015V118.544H52.2055V117.328H61.5335V120.736H53.8535ZM61.5335 112.048H63.5815V113.408H61.5335V116.672H59.8855V108.752H61.5335V112.048ZM69.382 110.304H76.23C76.23 114.608 74.502 118.256 69.542 120.656L68.662 119.344C72.454 117.52 74.246 114.976 74.534 111.648H69.382V110.304ZM78.838 108.784H80.486V123.232H78.838V108.784ZM90.9167 114.976L89.3008 114.8C89.5888 113.248 89.6368 112.112 89.6528 111.216H84.0048V109.872H91.2688V110.704C91.2688 111.68 91.2688 113.104 90.9167 114.976ZM92.1168 115.696L92.2288 116.896C89.2208 117.424 85.8128 117.504 83.3008 117.504L83.1248 116.16C83.9888 116.16 84.9808 116.16 86.0048 116.128V113.168H87.6368V116.08C89.1408 116.016 90.6927 115.92 92.1168 115.696ZM86.9648 118.672V121.616H95.1248V122.96H85.3008V118.672H86.9648ZM94.6608 113.36H96.5808V114.72H94.6608V119.632H92.9968V108.784H94.6608V113.36ZM104.532 110.24C102.292 110.24 101.092 110.672 101.092 111.504C101.092 112.32 102.292 112.752 104.532 112.752C106.772 112.752 107.972 112.32 107.972 111.504C107.972 110.672 106.772 110.24 104.532 110.24ZM104.532 113.984C101.284 113.984 99.3795 113.104 99.3795 111.504C99.3795 109.888 101.284 109.008 104.532 109.008C107.764 109.008 109.684 109.888 109.684 111.504C109.684 113.104 107.764 113.984 104.532 113.984ZM101.204 120.64V121.84H109.844V123.104H99.5715V119.472H107.812V118.432H99.5395V117.184H109.428V120.64H101.204ZM97.9875 114.832H111.076V116.144H97.9875V114.832ZM126.636 119.536V113.392H123.708V112.032H126.636V108.784H128.284V119.536H126.636ZM124.844 115.984L123.964 117.264C122.412 116.688 121.276 115.52 120.668 114.064C120.028 115.68 118.828 116.96 117.164 117.6L116.284 116.32C118.54 115.52 119.788 113.488 119.788 111.344V109.664H121.468V111.376C121.468 113.328 122.684 115.2 124.844 115.984ZM120.54 121.616H128.62V122.96H118.876V118.4H120.54V121.616ZM137.659 115.2L137.835 116.544C136.171 116.848 134.795 116.896 132.555 116.896H131.579V109.808H137.211V111.136H133.179V112.656H137.051V113.936H133.179V115.552C135.003 115.536 136.235 115.472 137.659 115.2ZM133.451 119.6V118.272H143.259V123.248H141.611V119.6H133.451ZM141.691 108.784H143.259V117.568H141.691V113.792H140.091V117.472H138.555V109.056H140.091V112.448H141.691V108.784ZM149.274 118.624C150.25 118.624 150.938 117.84 150.938 116.64C150.938 115.44 150.25 114.64 149.274 114.64C148.298 114.64 147.61 115.44 147.61 116.64C147.61 117.84 148.298 118.624 149.274 118.624ZM149.274 113.28C151.098 113.28 152.41 114.64 152.41 116.64C152.41 118.624 151.098 120 149.274 120C147.45 120 146.138 118.624 146.138 116.64C146.138 114.64 147.45 113.28 149.274 113.28ZM150.09 109.2V111.136H152.794V112.464H145.722V111.136H148.458V109.2H150.09ZM156.49 108.784H158.058V123.232H156.49V116.128H154.954V122.56H153.418V109.088H154.954V114.768H156.49V108.784ZM161.784 115.856L161.192 114.56C163.944 114.192 165.976 112.608 166.072 110.928H161.672V109.6H172.312V110.928H167.944C168.04 112.608 170.072 114.192 172.824 114.56L172.232 115.856C169.848 115.504 167.88 114.32 167 112.72C166.12 114.32 164.168 115.504 161.784 115.856ZM173.544 116.912L173.528 118.24H167.784V123.248H166.136V118.24H160.472V116.912H173.544ZM179.623 110.112V112.64C179.623 114.976 180.503 117.424 182.439 118.64L181.511 119.92C180.199 119.12 179.335 117.712 178.839 116.096C178.327 117.872 177.383 119.392 175.991 120.24L174.983 118.992C177.031 117.776 178.023 115.184 178.023 112.72V110.112H179.623ZM183.015 113.84V109.056H184.567V122.56H183.015V115.184H180.887V113.84H183.015ZM185.959 108.784H187.527V123.232H185.959V108.784ZM194.614 116.976V120.112H198.262V116.96C197.702 117.104 197.078 117.168 196.438 117.168C195.798 117.168 195.174 117.104 194.614 116.976ZM196.438 110.912C194.246 110.912 192.726 111.872 192.726 113.392C192.726 114.928 194.246 115.888 196.438 115.888C198.614 115.888 200.134 114.928 200.134 113.392C200.134 111.872 198.614 110.912 196.438 110.912ZM199.91 120.112H202.998V121.456H189.91V120.112H192.966V116.352C191.814 115.712 191.126 114.672 191.126 113.392C191.126 111.088 193.35 109.616 196.438 109.616C199.51 109.616 201.75 111.088 201.75 113.392C201.75 114.672 201.062 115.696 199.91 116.352V120.112Z" fill="#222222"/>
<g clip-path="url(#clip1_813_1373)">
<rect width="320" height="46" transform="translate(20 135)" fill="white"/>
<path d="M20 181H340" stroke="#E7E7E7"/>
<path d="M308.5 162.25C312.228 162.25 315.25 159.228 315.25 155.5C315.25 151.772 312.228 148.75 308.5 148.75C304.772 148.75 301.75 151.772 301.75 155.5C301.75 159.228 304.772 162.25 308.5 162.25Z" stroke="#222222" stroke-width="1.5"/>
<path d="M313.5 160.5L318 165" stroke="#222222" stroke-width="1.5" stroke-linecap="round"/>
<path d="M39.512 152.276H45.182C45.182 155.454 42.956 157.708 39.358 158.73L38.882 157.834C41.864 156.98 43.726 155.342 43.964 153.214H39.512V152.276ZM42.102 160.088V162.93H47.954V160.088H42.102ZM40.968 163.854V159.178H49.074V163.854H40.968ZM47.926 151.478H49.074V158.646H47.926V155.65H45.196V154.712H47.926V151.478ZM57.9069 157.428L57.2909 158.296C56.1289 157.82 55.2609 156.896 54.8129 155.818C54.3649 157.008 53.4689 158.072 52.2509 158.618L51.6349 157.736C53.2729 156.994 54.2529 155.342 54.2529 153.914V152.22H55.3589V153.914C55.3589 155.328 56.2829 156.784 57.9069 157.428ZM53.7769 160.69V159.766H62.2189V164.036H61.0709V160.69H53.7769ZM61.1129 151.492H62.2189V159.08H61.1129V155.692H59.5169V158.996H58.4249V151.702H59.5169V154.754H61.1129V151.492ZM67.8598 160.186C69.0498 160.186 69.8898 158.87 69.8898 156.826C69.8898 154.796 69.0498 153.48 67.8598 153.48C66.6558 153.48 65.8158 154.796 65.8158 156.826C65.8158 158.87 66.6558 160.186 67.8598 160.186ZM73.6978 151.478H74.8458V164.064H73.6978V157.204H70.9678C70.8558 159.668 69.6098 161.208 67.8598 161.208C66.0258 161.208 64.7238 159.5 64.7238 156.826C64.7238 154.152 66.0258 152.444 67.8598 152.444C69.5538 152.444 70.7858 153.914 70.9678 156.266H73.6978V151.478ZM86.1707 153.676V152.654H78.8067V151.842H87.3047V154.46H79.9687V155.538H87.5287V156.364H78.8347V153.676H86.1707ZM79.8987 161.88V163.042H87.7387V163.868H78.7647V161.082H86.2127V160.032H78.7367V159.206H87.3467V161.88H79.8987ZM77.3787 157.316H88.7607V158.184H77.3787V157.316ZM102.544 151.492H103.692V158.226H102.544V151.492ZM95.6005 158.842H96.7345V160.382H102.558V158.842H103.692V163.868H95.6005V158.842ZM96.7345 161.278V162.944H102.558V161.278H96.7345ZM96.9445 152.08C98.8485 152.08 100.234 153.256 100.234 154.964C100.234 156.7 98.8485 157.862 96.9445 157.862C95.0545 157.862 93.6825 156.7 93.6825 154.964C93.6825 153.256 95.0545 152.08 96.9445 152.08ZM96.9445 153.032C95.6985 153.032 94.8025 153.83 94.8025 154.964C94.8025 156.112 95.6985 156.91 96.9445 156.91C98.2185 156.91 99.1145 156.112 99.1145 154.964C99.1145 153.83 98.2185 153.032 96.9445 153.032ZM112.903 157.4L113.015 158.324C111.475 158.59 110.201 158.632 107.695 158.632H106.799V154.908H111.055V153.172H106.757V152.234H112.175V155.79H107.919V157.694C110.243 157.694 111.447 157.638 112.903 157.4ZM108.199 160.816V159.878H116.599V164.05H115.451V160.816H108.199ZM115.451 151.492H116.599V159.206H115.451V156.882H113.001V155.958H115.451V154.278H113.001V153.34H115.451V151.492ZM122.254 160.172C123.22 160.172 123.92 159.374 123.92 158.254C123.92 157.162 123.22 156.364 122.254 156.364C121.274 156.364 120.588 157.162 120.588 158.254C120.588 159.374 121.274 160.172 122.254 160.172ZM122.254 155.398C123.808 155.398 124.942 156.574 124.942 158.254C124.942 159.962 123.808 161.124 122.254 161.124C120.7 161.124 119.566 159.962 119.566 158.254C119.566 156.574 120.7 155.398 122.254 155.398ZM122.814 151.842V153.62H125.362V154.558H119.132V153.62H121.68V151.842H122.814ZM128.68 151.464H129.786V164.022H128.68V157.708H127.07V163.42H125.992V151.758H127.07V156.77H128.68V151.464ZM134.503 155.552V157.862H140.915V155.552H134.503ZM138.283 161.488H143.407V162.426H132.025V161.488H137.121V158.786H133.369V152.374H134.503V154.614H140.915V152.374H142.035V158.786H138.283V161.488ZM148.628 152.668V155.02C148.628 157.036 149.566 159.164 151.218 160.172L150.56 161.068C149.37 160.34 148.53 159.01 148.082 157.484C147.634 159.15 146.724 160.578 145.478 161.348L144.764 160.48C146.486 159.472 147.522 157.218 147.522 155.062V152.668H148.628ZM151.932 155.986V151.758H153.01V163.42H151.932V156.938H149.86V155.986H151.932ZM154.48 151.478H155.572V164.036H154.48V151.478ZM161.717 158.52V161.474H165.217V158.52C164.685 158.646 164.083 158.716 163.453 158.716C162.837 158.716 162.235 158.646 161.717 158.52ZM163.453 153.172C161.437 153.172 159.995 154.096 159.995 155.496C159.995 156.896 161.437 157.82 163.453 157.82C165.469 157.82 166.925 156.896 166.925 155.496C166.925 154.096 165.469 153.172 163.453 153.172ZM166.365 161.474H169.179V162.426H157.769V161.474H160.569V158.086C159.519 157.54 158.889 156.63 158.889 155.496C158.889 153.536 160.793 152.276 163.453 152.276C166.127 152.276 168.017 153.536 168.017 155.496C168.017 156.63 167.401 157.526 166.365 158.072V161.474Z" fill="#D3D3D3"/>
</g>
<path d="M38.64 247.42L38.025 248.395C36.51 247.84 35.34 246.715 34.74 245.305C34.185 246.895 32.985 248.125 31.38 248.725L30.735 247.75C32.79 247.015 34.095 245.215 34.095 243.13V241.465H35.325V243.16C35.325 245.005 36.66 246.715 38.64 247.42ZM34.125 249.64V252.805H41.82V253.81H32.895V249.64H34.125ZM41.235 244.78H43.23V245.8H41.235V250.585H40.005V240.64H41.235V244.78ZM54.4488 252.94V251.2H48.2838V252.94H54.4488ZM54.4488 250.24V248.545H55.6788V253.93H47.0688V248.545H48.2838V250.24H54.4488ZM48.2688 246.49C49.6038 246.49 50.5638 245.62 50.5638 244.39C50.5638 243.16 49.6038 242.305 48.2688 242.305C46.9338 242.305 45.9738 243.16 45.9738 244.39C45.9738 245.62 46.9338 246.49 48.2688 246.49ZM54.4338 240.67H55.6788V247.885H54.4338V244.87H51.7038C51.4638 246.46 50.1138 247.51 48.2688 247.51C46.2588 247.51 44.8038 246.25 44.8038 244.39C44.8038 242.545 46.2588 241.285 48.2688 241.285C50.0838 241.285 51.4338 242.305 51.6888 243.865H54.4338V240.67ZM69.4327 240.67V250.495H68.2027V240.67H69.4327ZM59.9077 244.9C59.9077 246.235 60.8977 247.165 62.2027 247.165C63.5377 247.165 64.5277 246.235 64.5277 244.9C64.5277 243.595 63.5377 242.665 62.2027 242.665C60.8977 242.665 59.9077 243.595 59.9077 244.9ZM65.7277 244.9C65.7277 246.85 64.2127 248.23 62.2027 248.23C60.2077 248.23 58.7077 246.85 58.7077 244.9C58.7077 242.965 60.2077 241.6 62.2027 241.6C64.2127 241.6 65.7277 242.965 65.7277 244.9ZM62.0077 252.805H69.8377V253.81H60.7777V249.49H62.0077V252.805ZM79.3015 247L79.4215 247.99C77.7715 248.275 76.4065 248.32 73.7215 248.32H72.7615V244.33H77.3215V242.47H72.7165V241.465H78.5215V245.275H73.9615V247.315C76.4515 247.315 77.7415 247.255 79.3015 247ZM74.2615 250.66V249.655H83.2615V254.125H82.0315V250.66H74.2615ZM82.0315 240.67H83.2615V248.935H82.0315V246.445H79.4065V245.455H82.0315V243.655H79.4065V242.65H82.0315V240.67ZM95.3953 242.485V242.335H87.4453V241.345H96.6103V242.485C96.6103 243.565 96.6103 244.66 96.2353 246.04L95.0353 245.905C95.3953 244.525 95.3953 243.535 95.3953 242.485ZM92.0203 253.135C94.1353 253.135 95.4853 252.565 95.4853 251.635C95.4853 250.675 94.1353 250.105 92.0203 250.105C89.9203 250.105 88.5703 250.675 88.5703 251.635C88.5703 252.565 89.9203 253.135 92.0203 253.135ZM92.0203 249.16C94.8853 249.16 96.7153 250.075 96.7153 251.635C96.7153 253.165 94.8853 254.095 92.0203 254.095C89.1553 254.095 87.3403 253.165 87.3403 251.635C87.3403 250.075 89.1553 249.16 92.0203 249.16ZM92.2153 246.925H98.1253V247.93H86.0203V246.925H90.9853V244.345H92.2153V246.925ZM107.574 246.55L107.709 247.54C105.864 247.915 104.274 248.005 101.454 248.005H100.404V241.825H106.359V242.815H101.634V247C104.289 247 105.819 246.895 107.574 246.55ZM103.089 249.415V252.805H110.829V253.81H101.859V249.415H103.089ZM110.229 244.645H112.224V245.665H110.229V250.39H108.999V240.655H110.229V244.645Z" fill="#111111"/>
<path d="M310.5 256.5C315.747 256.5 320 252.247 320 247C320 241.753 315.747 237.5 310.5 237.5C305.253 237.5 301 241.753 301 247C301 252.247 305.253 256.5 310.5 256.5Z" stroke="#DDDDDD"/>
<line x1="20" y1="277.5" x2="340" y2="277.5" stroke="#EEEEEE"/>
<path d="M38.64 309.42L38.025 310.395C36.51 309.84 35.34 308.715 34.74 307.305C34.185 308.895 32.985 310.125 31.38 310.725L30.735 309.75C32.79 309.015 34.095 307.215 34.095 305.13V303.465H35.325V305.16C35.325 307.005 36.66 308.715 38.64 309.42ZM34.125 311.64V314.805H41.82V315.81H32.895V311.64H34.125ZM41.235 306.78H43.23V307.8H41.235V312.585H40.005V302.64H41.235V306.78ZM54.4488 314.94V313.2H48.2838V314.94H54.4488ZM54.4488 312.24V310.545H55.6788V315.93H47.0688V310.545H48.2838V312.24H54.4488ZM48.2688 308.49C49.6038 308.49 50.5638 307.62 50.5638 306.39C50.5638 305.16 49.6038 304.305 48.2688 304.305C46.9338 304.305 45.9738 305.16 45.9738 306.39C45.9738 307.62 46.9338 308.49 48.2688 308.49ZM54.4338 302.67H55.6788V309.885H54.4338V306.87H51.7038C51.4638 308.46 50.1138 309.51 48.2688 309.51C46.2588 309.51 44.8038 308.25 44.8038 306.39C44.8038 304.545 46.2588 303.285 48.2688 303.285C50.0838 303.285 51.4338 304.305 51.6888 305.865H54.4338V302.67ZM69.4327 302.67V312.495H68.2027V302.67H69.4327ZM59.9077 306.9C59.9077 308.235 60.8977 309.165 62.2027 309.165C63.5377 309.165 64.5277 308.235 64.5277 306.9C64.5277 305.595 63.5377 304.665 62.2027 304.665C60.8977 304.665 59.9077 305.595 59.9077 306.9ZM65.7277 306.9C65.7277 308.85 64.2127 310.23 62.2027 310.23C60.2077 310.23 58.7077 308.85 58.7077 306.9C58.7077 304.965 60.2077 303.6 62.2027 303.6C64.2127 303.6 65.7277 304.965 65.7277 306.9ZM62.0077 314.805H69.8377V315.81H60.7777V311.49H62.0077V314.805ZM79.3015 309L79.4215 309.99C77.7715 310.275 76.4065 310.32 73.7215 310.32H72.7615V306.33H77.3215V304.47H72.7165V303.465H78.5215V307.275H73.9615V309.315C76.4515 309.315 77.7415 309.255 79.3015 309ZM74.2615 312.66V311.655H83.2615V316.125H82.0315V312.66H74.2615ZM82.0315 302.67H83.2615V310.935H82.0315V308.445H79.4065V307.455H82.0315V305.655H79.4065V304.65H82.0315V302.67ZM95.3953 304.485V304.335H87.4453V303.345H96.6103V304.485C96.6103 305.565 96.6103 306.66 96.2353 308.04L95.0353 307.905C95.3953 306.525 95.3953 305.535 95.3953 304.485ZM92.0203 315.135C94.1353 315.135 95.4853 314.565 95.4853 313.635C95.4853 312.675 94.1353 312.105 92.0203 312.105C89.9203 312.105 88.5703 312.675 88.5703 313.635C88.5703 314.565 89.9203 315.135 92.0203 315.135ZM92.0203 311.16C94.8853 311.16 96.7153 312.075 96.7153 313.635C96.7153 315.165 94.8853 316.095 92.0203 316.095C89.1553 316.095 87.3403 315.165 87.3403 313.635C87.3403 312.075 89.1553 311.16 92.0203 311.16ZM92.2153 308.925H98.1253V309.93H86.0203V308.925H90.9853V306.345H92.2153V308.925ZM107.574 308.55L107.709 309.54C105.864 309.915 104.274 310.005 101.454 310.005H100.404V303.825H106.359V304.815H101.634V309C104.289 309 105.819 308.895 107.574 308.55ZM103.089 311.415V314.805H110.829V315.81H101.859V311.415H103.089ZM110.229 306.645H112.224V307.665H110.229V312.39H108.999V302.655H110.229V306.645Z" fill="#111111"/>
<path d="M310.5 318.5C315.747 318.5 320 314.247 320 309C320 303.753 315.747 299.5 310.5 299.5C305.253 299.5 301 303.753 301 309C301 314.247 305.253 318.5 310.5 318.5Z" stroke="#DDDDDD"/>
<line x1="20" y1="339.5" x2="340" y2="339.5" stroke="#EEEEEE"/>
<path d="M38.64 371.42L38.025 372.395C36.51 371.84 35.34 370.715 34.74 369.305C34.185 370.895 32.985 372.125 31.38 372.725L30.735 371.75C32.79 371.015 34.095 369.215 34.095 367.13V365.465H35.325V367.16C35.325 369.005 36.66 370.715 38.64 371.42ZM34.125 373.64V376.805H41.82V377.81H32.895V373.64H34.125ZM41.235 368.78H43.23V369.8H41.235V374.585H40.005V364.64H41.235V368.78ZM54.4488 376.94V375.2H48.2838V376.94H54.4488ZM54.4488 374.24V372.545H55.6788V377.93H47.0688V372.545H48.2838V374.24H54.4488ZM48.2688 370.49C49.6038 370.49 50.5638 369.62 50.5638 368.39C50.5638 367.16 49.6038 366.305 48.2688 366.305C46.9338 366.305 45.9738 367.16 45.9738 368.39C45.9738 369.62 46.9338 370.49 48.2688 370.49ZM54.4338 364.67H55.6788V371.885H54.4338V368.87H51.7038C51.4638 370.46 50.1138 371.51 48.2688 371.51C46.2588 371.51 44.8038 370.25 44.8038 368.39C44.8038 366.545 46.2588 365.285 48.2688 365.285C50.0838 365.285 51.4338 366.305 51.6888 367.865H54.4338V364.67ZM69.4327 364.67V374.495H68.2027V364.67H69.4327ZM59.9077 368.9C59.9077 370.235 60.8977 371.165 62.2027 371.165C63.5377 371.165 64.5277 370.235 64.5277 368.9C64.5277 367.595 63.5377 366.665 62.2027 366.665C60.8977 366.665 59.9077 367.595 59.9077 368.9ZM65.7277 368.9C65.7277 370.85 64.2127 372.23 62.2027 372.23C60.2077 372.23 58.7077 370.85 58.7077 368.9C58.7077 366.965 60.2077 365.6 62.2027 365.6C64.2127 365.6 65.7277 366.965 65.7277 368.9ZM62.0077 376.805H69.8377V377.81H60.7777V373.49H62.0077V376.805ZM79.3015 371L79.4215 371.99C77.7715 372.275 76.4065 372.32 73.7215 372.32H72.7615V368.33H77.3215V366.47H72.7165V365.465H78.5215V369.275H73.9615V371.315C76.4515 371.315 77.7415 371.255 79.3015 371ZM74.2615 374.66V373.655H83.2615V378.125H82.0315V374.66H74.2615ZM82.0315 364.67H83.2615V372.935H82.0315V370.445H79.4065V369.455H82.0315V367.655H79.4065V366.65H82.0315V364.67ZM95.3953 366.485V366.335H87.4453V365.345H96.6103V366.485C96.6103 367.565 96.6103 368.66 96.2353 370.04L95.0353 369.905C95.3953 368.525 95.3953 367.535 95.3953 366.485ZM92.0203 377.135C94.1353 377.135 95.4853 376.565 95.4853 375.635C95.4853 374.675 94.1353 374.105 92.0203 374.105C89.9203 374.105 88.5703 374.675 88.5703 375.635C88.5703 376.565 89.9203 377.135 92.0203 377.135ZM92.0203 373.16C94.8853 373.16 96.7153 374.075 96.7153 375.635C96.7153 377.165 94.8853 378.095 92.0203 378.095C89.1553 378.095 87.3403 377.165 87.3403 375.635C87.3403 374.075 89.1553 373.16 92.0203 373.16ZM92.2153 370.925H98.1253V371.93H86.0203V370.925H90.9853V368.345H92.2153V370.925ZM107.574 370.55L107.709 371.54C105.864 371.915 104.274 372.005 101.454 372.005H100.404V365.825H106.359V366.815H101.634V371C104.289 371 105.819 370.895 107.574 370.55ZM103.089 373.415V376.805H110.829V377.81H101.859V373.415H103.089ZM110.229 368.645H112.224V369.665H110.229V374.39H108.999V364.655H110.229V368.645Z" fill="#111111"/>
<path d="M310.5 380.5C315.747 380.5 320 376.247 320 371C320 365.753 315.747 361.5 310.5 361.5C305.253 361.5 301 365.753 301 371C301 376.247 305.253 380.5 310.5 380.5Z" stroke="#DDDDDD"/>
<line x1="20" y1="401.5" x2="340" y2="401.5" stroke="#EEEEEE"/>
<path d="M38.64 433.42L38.025 434.395C36.51 433.84 35.34 432.715 34.74 431.305C34.185 432.895 32.985 434.125 31.38 434.725L30.735 433.75C32.79 433.015 34.095 431.215 34.095 429.13V427.465H35.325V429.16C35.325 431.005 36.66 432.715 38.64 433.42ZM34.125 435.64V438.805H41.82V439.81H32.895V435.64H34.125ZM41.235 430.78H43.23V431.8H41.235V436.585H40.005V426.64H41.235V430.78ZM54.4488 438.94V437.2H48.2838V438.94H54.4488ZM54.4488 436.24V434.545H55.6788V439.93H47.0688V434.545H48.2838V436.24H54.4488ZM48.2688 432.49C49.6038 432.49 50.5638 431.62 50.5638 430.39C50.5638 429.16 49.6038 428.305 48.2688 428.305C46.9338 428.305 45.9738 429.16 45.9738 430.39C45.9738 431.62 46.9338 432.49 48.2688 432.49ZM54.4338 426.67H55.6788V433.885H54.4338V430.87H51.7038C51.4638 432.46 50.1138 433.51 48.2688 433.51C46.2588 433.51 44.8038 432.25 44.8038 430.39C44.8038 428.545 46.2588 427.285 48.2688 427.285C50.0838 427.285 51.4338 428.305 51.6888 429.865H54.4338V426.67ZM69.4327 426.67V436.495H68.2027V426.67H69.4327ZM59.9077 430.9C59.9077 432.235 60.8977 433.165 62.2027 433.165C63.5377 433.165 64.5277 432.235 64.5277 430.9C64.5277 429.595 63.5377 428.665 62.2027 428.665C60.8977 428.665 59.9077 429.595 59.9077 430.9ZM65.7277 430.9C65.7277 432.85 64.2127 434.23 62.2027 434.23C60.2077 434.23 58.7077 432.85 58.7077 430.9C58.7077 428.965 60.2077 427.6 62.2027 427.6C64.2127 427.6 65.7277 428.965 65.7277 430.9ZM62.0077 438.805H69.8377V439.81H60.7777V435.49H62.0077V438.805ZM79.3015 433L79.4215 433.99C77.7715 434.275 76.4065 434.32 73.7215 434.32H72.7615V430.33H77.3215V428.47H72.7165V427.465H78.5215V431.275H73.9615V433.315C76.4515 433.315 77.7415 433.255 79.3015 433ZM74.2615 436.66V435.655H83.2615V440.125H82.0315V436.66H74.2615ZM82.0315 426.67H83.2615V434.935H82.0315V432.445H79.4065V431.455H82.0315V429.655H79.4065V428.65H82.0315V426.67ZM95.3953 428.485V428.335H87.4453V427.345H96.6103V428.485C96.6103 429.565 96.6103 430.66 96.2353 432.04L95.0353 431.905C95.3953 430.525 95.3953 429.535 95.3953 428.485ZM92.0203 439.135C94.1353 439.135 95.4853 438.565 95.4853 437.635C95.4853 436.675 94.1353 436.105 92.0203 436.105C89.9203 436.105 88.5703 436.675 88.5703 437.635C88.5703 438.565 89.9203 439.135 92.0203 439.135ZM92.0203 435.16C94.8853 435.16 96.7153 436.075 96.7153 437.635C96.7153 439.165 94.8853 440.095 92.0203 440.095C89.1553 440.095 87.3403 439.165 87.3403 437.635C87.3403 436.075 89.1553 435.16 92.0203 435.16ZM92.2153 432.925H98.1253V433.93H86.0203V432.925H90.9853V430.345H92.2153V432.925ZM107.574 432.55L107.709 433.54C105.864 433.915 104.274 434.005 101.454 434.005H100.404V427.825H106.359V428.815H101.634V433C104.289 433 105.819 432.895 107.574 432.55ZM103.089 435.415V438.805H110.829V439.81H101.859V435.415H103.089ZM110.229 430.645H112.224V431.665H110.229V436.39H108.999V426.655H110.229V430.645Z" fill="#111111"/>
<path d="M310.5 442.5C315.747 442.5 320 438.247 320 433C320 427.753 315.747 423.5 310.5 423.5C305.253 423.5 301 427.753 301 433C301 438.247 305.253 442.5 310.5 442.5Z" stroke="#DDDDDD"/>
<line x1="20" y1="463.5" x2="340" y2="463.5" stroke="#EEEEEE"/>
<path d="M38.64 495.42L38.025 496.395C36.51 495.84 35.34 494.715 34.74 493.305C34.185 494.895 32.985 496.125 31.38 496.725L30.735 495.75C32.79 495.015 34.095 493.215 34.095 491.13V489.465H35.325V491.16C35.325 493.005 36.66 494.715 38.64 495.42ZM34.125 497.64V500.805H41.82V501.81H32.895V497.64H34.125ZM41.235 492.78H43.23V493.8H41.235V498.585H40.005V488.64H41.235V492.78ZM54.4488 500.94V499.2H48.2838V500.94H54.4488ZM54.4488 498.24V496.545H55.6788V501.93H47.0688V496.545H48.2838V498.24H54.4488ZM48.2688 494.49C49.6038 494.49 50.5638 493.62 50.5638 492.39C50.5638 491.16 49.6038 490.305 48.2688 490.305C46.9338 490.305 45.9738 491.16 45.9738 492.39C45.9738 493.62 46.9338 494.49 48.2688 494.49ZM54.4338 488.67H55.6788V495.885H54.4338V492.87H51.7038C51.4638 494.46 50.1138 495.51 48.2688 495.51C46.2588 495.51 44.8038 494.25 44.8038 492.39C44.8038 490.545 46.2588 489.285 48.2688 489.285C50.0838 489.285 51.4338 490.305 51.6888 491.865H54.4338V488.67ZM69.4327 488.67V498.495H68.2027V488.67H69.4327ZM59.9077 492.9C59.9077 494.235 60.8977 495.165 62.2027 495.165C63.5377 495.165 64.5277 494.235 64.5277 492.9C64.5277 491.595 63.5377 490.665 62.2027 490.665C60.8977 490.665 59.9077 491.595 59.9077 492.9ZM65.7277 492.9C65.7277 494.85 64.2127 496.23 62.2027 496.23C60.2077 496.23 58.7077 494.85 58.7077 492.9C58.7077 490.965 60.2077 489.6 62.2027 489.6C64.2127 489.6 65.7277 490.965 65.7277 492.9ZM62.0077 500.805H69.8377V501.81H60.7777V497.49H62.0077V500.805ZM79.3015 495L79.4215 495.99C77.7715 496.275 76.4065 496.32 73.7215 496.32H72.7615V492.33H77.3215V490.47H72.7165V489.465H78.5215V493.275H73.9615V495.315C76.4515 495.315 77.7415 495.255 79.3015 495ZM74.2615 498.66V497.655H83.2615V502.125H82.0315V498.66H74.2615ZM82.0315 488.67H83.2615V496.935H82.0315V494.445H79.4065V493.455H82.0315V491.655H79.4065V490.65H82.0315V488.67ZM95.3953 490.485V490.335H87.4453V489.345H96.6103V490.485C96.6103 491.565 96.6103 492.66 96.2353 494.04L95.0353 493.905C95.3953 492.525 95.3953 491.535 95.3953 490.485ZM92.0203 501.135C94.1353 501.135 95.4853 500.565 95.4853 499.635C95.4853 498.675 94.1353 498.105 92.0203 498.105C89.9203 498.105 88.5703 498.675 88.5703 499.635C88.5703 500.565 89.9203 501.135 92.0203 501.135ZM92.0203 497.16C94.8853 497.16 96.7153 498.075 96.7153 499.635C96.7153 501.165 94.8853 502.095 92.0203 502.095C89.1553 502.095 87.3403 501.165 87.3403 499.635C87.3403 498.075 89.1553 497.16 92.0203 497.16ZM92.2153 494.925H98.1253V495.93H86.0203V494.925H90.9853V492.345H92.2153V494.925ZM107.574 494.55L107.709 495.54C105.864 495.915 104.274 496.005 101.454 496.005H100.404V489.825H106.359V490.815H101.634V495C104.289 495 105.819 494.895 107.574 494.55ZM103.089 497.415V500.805H110.829V501.81H101.859V497.415H103.089ZM110.229 492.645H112.224V493.665H110.229V498.39H108.999V488.655H110.229V492.645Z" fill="#111111"/>
<path d="M310.5 504.5C315.747 504.5 320 500.247 320 495C320 489.753 315.747 485.5 310.5 485.5C305.253 485.5 301 489.753 301 495C301 500.247 305.253 504.5 310.5 504.5Z" stroke="#DDDDDD"/>
<line x1="20" y1="525.5" x2="340" y2="525.5" stroke="#EEEEEE"/>
<path d="M360 660H0V684H360V660Z" fill="url(#paint0_linear_813_1373)"/>
<rect y="684" width="360" height="76" fill="white"/>
<rect x="20" y="684" width="320" height="52" rx="10" fill="#F4F4F4"/>
<path d="M155.86 706.824V707.544C155.86 710.008 156.58 712.488 158.708 713.736L157.476 715.272C156.164 714.504 155.332 713.224 154.852 711.672C154.34 713.352 153.476 714.792 152.148 715.624L150.9 714.072C153.044 712.712 153.812 710.072 153.812 707.544V706.824H151.444V705.112H158.004V706.824H155.86ZM158.852 708.664V703.88H160.82V717.704H158.852V710.376H156.98V708.664H158.852ZM161.828 703.624H163.828V718.36H161.828V703.624ZM167.027 709.528L166.451 707.976C169.411 707.848 170.851 707.144 171.251 706.312H167.187V704.792H171.491V703.624H173.603V704.792H177.939V706.312H173.843C174.259 707.144 175.699 707.848 178.659 707.976L178.067 709.528C175.331 709.384 173.475 708.712 172.547 707.624C171.635 708.712 169.779 709.384 167.027 709.528ZM179.203 711.448H173.619V712.328H177.603V715.976H169.539V716.744H177.987V718.264H167.443V714.552H175.523V713.848H167.427V712.328H171.507V711.448H165.939V709.896H179.203V711.448ZM184.882 713.64C185.874 713.64 186.594 712.968 186.594 711.832C186.594 710.728 185.874 710.04 184.882 710.04C183.89 710.04 183.154 710.728 183.154 711.848C183.154 712.968 183.89 713.64 184.882 713.64ZM184.882 708.328C187.01 708.328 188.594 709.784 188.594 711.832C188.594 713.912 187.01 715.368 184.882 715.368C182.738 715.368 181.138 713.912 181.138 711.832C181.138 709.784 182.738 708.328 184.882 708.328ZM185.922 703.896V705.816H189.122V707.496H180.546V705.816H183.81V703.896H185.922ZM194.306 709.4V711.144H192.194V718.376H190.082V703.64H192.194V709.4H194.306ZM196.16 705.16H203.232C203.232 709.672 201.712 713.352 196.48 715.88L195.376 714.216C199.136 712.408 200.768 710.104 201.072 706.84H196.16V705.16ZM205.488 703.624H207.616V718.36H205.488V703.624Z" fill="#D3D3D3"/>
</g>
<rect x="0.5" y="0.5" width="359" height="759" stroke="black"/>
<defs>
<linearGradient id="paint0_linear_813_1373" x1="180" y1="660" x2="180" y2="684" gradientUnits="userSpaceOnUse">
<stop stop-color="white" stop-opacity="0"/>
<stop offset="1" stop-color="white"/>
</linearGradient>
<clipPath id="clip0_813_1373">
<rect width="360" height="760" fill="white"/>
</clipPath>
<clipPath id="clip1_813_1373">
<rect width="320" height="46" fill="white" transform="translate(20 135)"/>
</clipPath>
</defs>
</svg>
